<svg width="110" height="90" viewBox="0 0 110 90" fill="none" xmlns="http://www.w3.org/2000/svg">
<path d="M81.2701 38.6836C81.312 38.7103 83.7902 40.4252 87.6288 40.4275C91.5175 40.4182 94.3512 38.0353 94.3884 38.0109C94.5731 37.8575 94.5987 37.5822 94.4442 37.3974C94.2908 37.2127 94.0154 37.1883 93.8307 37.3417L93.8063 37.3626C93.5251 37.5915 90.9261 39.5642 87.6288 39.5561C85.8419 39.5561 84.3676 39.1541 83.3429 38.7521C82.8305 38.5523 82.4308 38.3525 82.1624 38.2038C82.0277 38.1294 81.9254 38.069 81.8592 38.0272L81.786 37.9795L81.7662 37.9667C81.5676 37.8296 81.2969 37.8796 81.1598 38.0771C81.0227 38.2746 81.0715 38.5465 81.2701 38.6836Z" fill="#CEA561"/>
<path d="M93.4716 38.3559C93.4716 38.3559 94.3395 38.8706 95.4502 38.6394C96.5609 38.4082 91.9322 41.8333 87.1641 40.2137C87.1641 40.2137 90.6124 40.4798 93.4716 38.3559Z" fill="#CEA561"/>
<path d="M64.4404 37.9667L64.4206 37.9795C64.1859 38.1364 61.9239 39.5584 58.5778 39.5561C56.8176 39.5573 55.2596 39.0031 54.1431 38.4442C53.5842 38.1654 53.1381 37.8866 52.8337 37.6786C52.6803 37.574 52.5641 37.4881 52.4863 37.4288L52.4003 37.3626L52.3748 37.3417C52.19 37.1883 51.9147 37.2127 51.7613 37.3974C51.6068 37.5822 51.6324 37.8575 51.8171 38.0109C51.8543 38.0353 54.688 40.4182 58.5778 40.4275C62.4153 40.424 64.8947 38.7103 64.9365 38.6836C65.1352 38.5465 65.184 38.2746 65.0469 38.0771C64.9098 37.8796 64.6391 37.8296 64.4404 37.9667Z" fill="#CEA561"/>
<path d="M52.732 38.3167C52.732 38.3167 51.8641 38.8314 50.7534 38.6002C50.2852 38.5026 50.8324 39.0509 51.9768 39.6005C53.5569 40.3568 56.2756 41.1132 59.0396 40.1745C59.0396 40.1745 55.5901 40.4405 52.732 38.3167Z" fill="#CEA561"/>
<path d="M88.7824 45.4653C84.2513 45.4572 80.5834 43.0894 80.5892 40.179C80.5938 37.2674 84.271 34.9147 88.8033 34.924C93.3333 34.9321 97.0035 37.3 96.9977 40.2103C96.9919 43.1207 93.3136 45.4746 88.7824 45.4653ZM73.4439 72.5627C68.9139 72.5534 65.2425 71.8412 65.2472 68.9296C65.253 66.0181 68.9291 64.5031 73.4602 64.5112C77.9913 64.5205 81.6604 66.0506 81.6546 68.961C81.65 71.8726 77.9751 72.5708 73.4439 72.5627ZM58.2112 45.4061C53.68 45.3979 50.011 43.0313 50.0168 40.1197C50.0226 37.2082 53.7009 34.8566 58.2309 34.8648C62.7632 34.8729 66.4311 37.2407 66.4253 40.1511C66.4195 43.0626 62.7423 45.4153 58.2112 45.4061ZM105.122 45.4967C105.139 36.6342 102.824 28.448 98.9031 21.8441L92.2365 24.5651L97.1128 19.1034C91.3385 11.0008 82.9373 5.88869 73.5729 5.87127C64.2504 5.85384 55.8619 10.8857 50.0586 18.9024L55.0115 24.4931L48.2159 21.6896C44.2483 28.2865 41.8886 36.4855 41.8712 45.3747C41.8537 54.8866 45.0813 63.6189 49.9273 70.4528L54.7094 68.5021L51.318 72.3001C57.5013 80.0948 65.8119 84.9862 73.4207 85.0001C80.6647 85.014 89.0845 80.0879 95.4258 72.22L92.1959 68.5741L96.7712 70.4621C101.717 63.6596 105.104 54.9726 105.122 45.4967Z" fill="#151515"/>
<path d="M88.3469 45.0296L88.3481 44.594C86.1592 44.5905 84.1853 44.013 82.7876 43.1103C81.3841 42.2029 80.5871 41.0086 80.5882 39.7491V39.7468H80.2583L80.5882 39.7561V39.7468H80.2583L80.5882 39.7561V39.7433C80.5894 38.4851 81.3876 37.2954 82.7899 36.3926C84.1876 35.4945 86.158 34.9229 88.3435 34.924H88.3655C90.5544 34.9264 92.5284 35.505 93.9261 36.4065C95.3295 37.3139 96.1277 38.5083 96.1254 39.7677L96.1266 39.7944L96.5622 39.7747L96.1266 39.7735C96.1254 41.0318 95.3273 42.2227 93.9249 43.1254C92.5284 44.0224 90.5567 44.5951 88.3737 44.594H88.3481L88.3469 45.0296V45.4653H88.3737C90.7078 45.4642 92.8281 44.8623 94.3954 43.8585C95.9558 42.8593 96.9921 41.4233 96.9979 39.7758L96.9968 39.7538L96.6413 39.7712L96.9979 39.7689L96.9968 39.7538L96.6413 39.7712L96.9979 39.7689V39.7677C96.9956 38.1191 95.9604 36.6784 94.3989 35.6746C92.8304 34.6661 90.7078 34.0573 88.369 34.0527H88.3435C86.007 34.0538 83.8867 34.6557 82.3194 35.6595C80.759 36.6575 79.7227 38.0947 79.718 39.7422L80.1537 39.7433L79.718 39.7294V39.7491C79.7192 41.3989 80.7544 42.8396 82.3159 43.8434C83.8832 44.8519 86.007 45.4595 88.3469 45.4653V45.0296ZM73.0084 72.127L73.0096 71.6913C70.7696 71.6879 68.7538 71.502 67.362 70.9908C66.666 70.7363 66.1327 70.4052 65.7842 70.0055C65.438 69.6024 65.2509 69.1353 65.2474 68.4998V68.4986L64.8873 68.4975L65.2474 68.5149V68.4986L64.8873 68.4975L65.2474 68.5149V68.494C65.2509 67.8608 65.4438 67.324 65.8051 66.8407C66.3465 66.1169 67.3015 65.5243 68.5517 65.1235C69.7995 64.7215 71.3308 64.5112 72.9864 64.5112H73.0212H73.0236C75.2392 64.5147 77.2317 64.897 78.6247 65.5999C79.3207 65.9507 79.8644 66.3771 80.2269 66.8616C80.5894 67.3473 80.7823 67.884 80.7834 68.5184L80.7846 68.5451L81.2191 68.5254L80.7834 68.5242C80.78 69.1574 80.594 69.6233 80.2501 70.023C79.7366 70.6213 78.7955 71.0593 77.5442 71.3242C76.2964 71.5914 74.757 71.6913 73.0898 71.6913H73.0084V72.127V72.5627H73.0898C75.3611 72.5604 77.4257 72.3896 78.9884 71.8203C79.768 71.5345 80.4302 71.143 80.9077 70.5946C81.3864 70.0485 81.6571 69.341 81.656 68.5265L81.6548 68.5056L81.3004 68.5219L81.6548 68.5207V68.5056L81.3004 68.5219L81.6548 68.5207V68.5184C81.6571 67.6993 81.3911 66.9569 80.924 66.3376C80.2234 65.4082 79.1034 64.7471 77.7417 64.3044C76.3778 63.8641 74.7605 63.6445 73.0259 63.6398H73.0271H72.9864C70.6813 63.6422 68.583 64.0221 67.0134 64.8063C66.2303 65.2002 65.5751 65.6986 65.1092 66.3167C64.6433 66.9336 64.376 67.6749 64.376 68.4928L64.8117 68.494L64.3772 68.4731L64.376 68.4998C64.3737 69.3177 64.6456 70.0299 65.1278 70.5783C65.8539 71.4032 66.9809 71.8761 68.3344 72.1677C69.6914 72.457 71.2924 72.5581 73.0073 72.5627L73.0084 72.127ZM57.7757 44.9704V44.5347C55.588 44.5324 53.614 43.9538 52.2163 43.0522C50.8128 42.1448 50.0147 40.9493 50.017 39.691V39.6875H49.687L50.017 39.698V39.6875H49.687L50.017 39.698V39.6852C50.017 38.427 50.8163 37.2361 52.2186 36.3334C53.6163 35.4364 55.5868 34.8636 57.771 34.8648H57.7931H57.7954C59.9832 34.8671 61.9571 35.4457 63.3548 36.3484C64.7583 37.2558 65.5565 38.4502 65.5541 39.7085L65.5553 39.7363L65.9898 39.7154L65.5541 39.7143C65.5541 40.9725 64.7548 42.1634 63.3536 43.0662C61.9571 43.9631 59.9855 44.5359 57.8013 44.5347H57.7757V44.9704L57.7745 45.4061H57.8013C60.1365 45.4049 62.2569 44.8031 63.8242 43.7993C65.3845 42.8013 66.4209 41.3641 66.4255 39.7166V39.6957L66.0688 39.7119L66.4255 39.7108V39.6957L66.0688 39.7119L66.4255 39.7108V39.7085C66.4232 38.0598 65.388 36.6191 63.8265 35.6153C62.2592 34.6069 60.1365 33.9992 57.7966 33.9934H57.7978H57.771C55.4358 33.9946 53.3154 34.5964 51.7481 35.6002C50.1878 36.5982 49.1503 38.0354 49.1456 39.6829L49.5813 39.6841L49.1456 39.6701V39.691C49.1479 41.3397 50.1831 42.7803 51.7446 43.7842C53.3119 44.7926 55.4358 45.4003 57.7745 45.4061L57.7757 44.9704ZM104.687 45.061L105.123 45.0622V44.9646C105.123 36.0626 102.791 27.8369 98.8429 21.1866C98.7325 21.0007 98.5025 20.924 98.3039 21.0053L93.3812 23.0141L97.0026 18.9582C97.1385 18.806 97.1502 18.5806 97.0328 18.4144C91.1958 10.2223 82.6668 5.0185 73.1386 4.99992H73.0898C63.6232 4.99992 55.1256 10.1189 49.2699 18.2111C49.1503 18.3761 49.1619 18.6027 49.2978 18.756L53.0006 22.9363L47.9466 20.8508C47.7479 20.7683 47.5179 20.8438 47.4075 21.0285C43.3969 27.6974 41.0174 35.9732 41 44.939V45.0192C41.0012 54.5997 44.2566 63.3877 49.1363 70.2693C49.2537 70.4342 49.4686 70.497 49.6568 70.4203L52.6938 69.1806L50.5572 71.574C50.4166 71.732 50.4097 71.969 50.541 72.1352C56.7881 80.0031 65.1858 84.978 72.9841 85.0001H73.0154C80.4523 84.9897 88.9325 79.9857 95.3296 72.0573C95.4632 71.8924 95.4574 71.6553 95.3168 71.4962L93.3358 69.2596L96.1696 70.4296C96.3554 70.5063 96.5704 70.4459 96.6889 70.2821C101.681 63.4145 105.103 54.6415 105.123 45.0622L104.687 45.061H104.251C104.234 54.4312 100.882 63.0322 95.9837 69.7708L96.3357 70.0265L96.5018 69.6233L91.9265 67.7353C91.7395 67.6575 91.5222 67.7202 91.4049 67.8852C91.2875 68.0502 91.2991 68.2756 91.4339 68.4266L94.6638 72.0736L94.9903 71.7843L94.6511 71.5113C88.3841 79.2967 80.055 84.1392 73.0154 84.1287H72.9852C65.5658 84.1218 57.3423 79.3141 51.2241 71.5926L50.8825 71.8645L51.2079 72.1537L54.5992 68.3557C54.734 68.2047 54.7468 67.9805 54.6294 67.8143C54.5133 67.6493 54.2972 67.5854 54.1089 67.6621L49.3269 69.614L49.4918 70.0172L49.8474 69.765C45.0618 63.0183 41.8714 54.3998 41.8714 45.0192V44.9402C41.8888 36.1277 44.2287 28.0042 48.1546 21.4782L47.7805 21.2539L47.6143 21.6559L54.4099 24.4606C54.5969 24.5373 54.813 24.4757 54.9304 24.3107C55.0477 24.1457 55.0361 23.9203 54.9025 23.7681L49.9496 18.1774L49.6231 18.4667L49.9763 18.7223C55.7076 10.8079 63.9485 5.87129 73.0898 5.87129H73.1374C82.3368 5.88872 90.609 10.9078 96.3229 18.921L96.6773 18.6677L96.3519 18.3773L91.4758 23.839C91.341 23.9901 91.3282 24.2143 91.4455 24.3804C91.5617 24.5454 91.7778 24.6093 91.966 24.5326L98.6327 21.8128L98.4676 21.4085L98.0936 21.6315C101.958 28.1401 104.251 36.2148 104.251 44.9646V45.061H104.687Z" fill="#CEA561"/>
<path d="M49.5911 38.7159C49.6374 38.7455 52.3814 40.6443 56.6318 40.6469C60.9375 40.6366 64.0751 37.9981 64.1163 37.9711C64.3208 37.8012 64.3491 37.4964 64.178 37.2918C64.0082 37.0873 63.7033 37.0603 63.4988 37.2301L63.4718 37.2532C63.1604 37.5067 60.2827 39.691 56.6318 39.682C54.6532 39.682 53.0208 39.2369 51.8861 38.7918C51.3188 38.5705 50.8763 38.3493 50.5791 38.1846C50.4299 38.1023 50.3167 38.0354 50.2433 37.9891L50.1623 37.9363L50.1404 37.9222C49.9204 37.7704 49.6207 37.8257 49.4689 38.0444C49.3171 38.2631 49.3711 38.5641 49.5911 38.7159Z" fill="#CEA561"/>
<path d="M63.1011 38.3533C63.1011 38.3533 64.0621 38.9232 65.2919 38.6672C66.5218 38.4112 61.3966 42.2036 56.1171 40.4103C56.1171 40.4103 59.9352 40.7049 63.1011 38.3533Z" fill="#CEA561"/>
<path d="M30.9556 37.9222L30.9337 37.9363C30.6739 38.11 28.1692 39.6846 24.4643 39.682C22.5153 39.6833 20.7902 39.0697 19.5539 38.4509C18.9351 38.1421 18.4411 37.8334 18.1041 37.6031C17.9343 37.4874 17.8056 37.3922 17.7194 37.3265L17.6242 37.2532L17.5959 37.2301C17.3914 37.0603 17.0865 37.0873 16.9167 37.2918C16.7456 37.4964 16.7739 37.8012 16.9784 37.9711C17.0196 37.9981 20.1573 40.6366 24.4643 40.6469C28.7134 40.643 31.4586 38.7455 31.5049 38.7159C31.7249 38.5641 31.7789 38.2631 31.6271 38.0444C31.4753 37.8257 31.1756 37.7704 30.9556 37.9222Z" fill="#CEA561"/>
<path d="M17.9894 38.3101C17.9894 38.3101 17.0284 38.88 15.7986 38.624C15.2801 38.5159 15.886 39.1231 17.1532 39.7316C18.9027 40.569 21.913 41.4065 24.9735 40.3671C24.9735 40.3671 21.154 40.6617 17.9894 38.3101Z" fill="#CEA561"/>
<path d="M57.9074 46.2252C52.8903 46.2162 48.829 43.5944 48.8355 40.3719C48.8406 37.1481 52.9122 34.543 57.9306 34.5533C62.9464 34.5623 67.0103 37.1841 67.0038 40.4066C66.9974 43.6291 62.9245 46.2355 57.9074 46.2252ZM40.9239 76.2288C35.9081 76.2185 31.8429 75.4299 31.8481 72.2061C31.8545 68.9823 35.9248 67.3047 40.9419 67.3137C45.959 67.324 50.0216 69.0183 50.0152 72.2408C50.01 75.4646 45.941 76.2378 40.9239 76.2288ZM24.0574 46.1596C19.0403 46.1506 14.9777 43.5301 14.9842 40.3063C14.9906 37.0825 19.0634 34.4787 24.0793 34.4877C29.0977 34.4967 33.1589 37.1185 33.1525 40.341C33.1461 43.5648 29.0745 46.1699 24.0574 46.1596ZM75.9999 46.2599C76.0179 36.447 73.4553 27.3827 69.1136 20.0706L61.732 23.0835L67.1312 17.0359C60.7376 8.06429 51.4354 2.40394 41.0667 2.38464C30.7443 2.36535 21.4562 7.93693 15.0304 16.8134L20.5145 23.0037L12.9902 19.8995C8.59699 27.2039 5.98422 36.2823 5.96492 46.1248C5.94562 56.6569 9.51936 66.3258 14.8851 73.8926L20.1801 71.7327L16.425 75.938C23.2714 84.5687 32.4733 89.9847 40.8982 90.0001C48.9191 90.0155 58.2419 84.561 65.2633 75.8493L61.687 71.8124L66.753 73.9029C72.2294 66.3708 75.9793 56.7521 75.9999 46.2599Z" fill="#483A22"/>
<path d="M57.4249 45.7428L57.4262 45.2604C55.0026 45.2565 52.8169 44.6171 51.2693 43.6176C49.7153 42.6129 48.8328 41.2904 48.8341 39.8959V39.8934H48.4688L48.8341 39.9037V39.8934H48.4688L48.8341 39.9037V39.8895C48.8354 38.4963 49.7192 37.179 51.2719 36.1794C52.8195 35.185 55.0013 34.5521 57.4211 34.5533H57.4455C59.8692 34.5559 62.0548 35.1966 63.6024 36.1948C65.1564 37.1996 66.0402 38.522 66.0377 39.9165L66.0389 39.9461L66.5213 39.9242L66.0389 39.9229C66.0376 41.3162 65.1539 42.6348 63.6012 43.6343C62.0549 44.6275 59.8717 45.2617 57.4545 45.2604H57.4262L57.4249 45.7428V46.2252H57.4545C60.039 46.2239 62.3867 45.5575 64.1221 44.446C65.8498 43.3397 66.9973 41.7497 67.0037 39.9255L67.0025 39.9011L66.6088 39.9204L67.0037 39.9178L67.0025 39.9011L66.6088 39.9204L67.0037 39.9178V39.9165C67.0012 38.091 65.8549 36.4959 64.126 35.3844C62.3893 34.2677 60.039 33.5937 57.4494 33.5885H57.4211C54.834 33.5898 52.4863 34.2562 50.7509 35.3677C49.0232 36.4727 47.8757 38.064 47.8706 39.8882L48.353 39.8895L47.8706 39.8741V39.8959C47.8718 41.7227 49.0181 43.3179 50.747 44.4293C52.4824 45.546 54.834 46.2188 57.4249 46.2252V45.7428ZM40.4414 75.7464L40.4427 75.264C37.9624 75.2601 35.7305 75.0543 34.1893 74.4882C33.4187 74.2065 32.8282 73.8399 32.4423 73.3973C32.059 72.9509 31.8518 72.4338 31.848 71.7301V71.7288L31.4492 71.7275L31.848 71.7469V71.7288L31.4492 71.7275L31.848 71.7469V71.7237C31.8518 71.0226 32.0654 70.4282 32.4655 69.8931C33.0649 69.0916 34.1224 68.4355 35.5066 67.9917C36.8882 67.5466 38.5838 67.3138 40.4169 67.3138H40.4555H40.4581C42.9114 67.3176 45.1176 67.7409 46.66 68.5192C47.4306 68.9077 48.0327 69.3798 48.434 69.9163C48.8354 70.454 49.049 71.0483 49.0502 71.7507L49.0515 71.7803L49.5327 71.7584L49.0502 71.7571C49.0464 72.4582 48.8405 72.9741 48.4598 73.4167C47.8911 74.0792 46.8491 74.5642 45.4636 74.8575C44.082 75.1533 42.3775 75.264 40.5314 75.264H40.4414V75.7464V76.2288H40.5314C43.0464 76.2262 45.3324 76.0371 47.0627 75.4068C47.9259 75.0903 48.6591 74.6568 49.1879 74.0496C49.7179 73.445 50.0176 72.6615 50.0164 71.7597L50.0151 71.7366L49.6227 71.7546L50.0151 71.7533V71.7366L49.6227 71.7546L50.0151 71.7533V71.7507C50.0176 70.8438 49.723 70.0218 49.2059 69.3361C48.4302 68.3069 47.19 67.5749 45.6823 67.0848C44.172 66.5973 42.3813 66.3541 40.4607 66.3489H40.462H40.4169C37.8646 66.3515 35.5413 66.7722 33.8034 67.6405C32.9363 68.0766 32.2107 68.6285 31.6949 69.3129C31.179 69.996 30.8831 70.8167 30.8831 71.7224L31.3655 71.7237L30.8844 71.7005L30.8831 71.7301C30.8806 72.6358 31.1816 73.4244 31.7155 74.0316C32.5195 74.945 33.7673 75.4685 35.266 75.7914C36.7686 76.1117 38.5413 76.2236 40.4401 76.2288L40.4414 75.7464ZM23.5749 45.6772V45.1948C21.1525 45.1922 18.9669 44.5515 17.4193 43.5533C15.8653 42.5486 14.9815 41.2248 14.9841 39.8316V39.8277H14.6187L14.9841 39.8393V39.8277H14.6187L14.9841 39.8393V39.8252C14.9841 38.432 15.8691 37.1134 17.4219 36.1138C18.9694 35.1207 21.1512 34.4865 23.5697 34.4877H23.5942H23.5968C26.0191 34.4903 28.2048 35.131 29.7524 36.1305C31.3064 37.1352 32.1902 38.4577 32.1876 39.8509L32.1889 39.8818L32.67 39.8586L32.1876 39.8573C32.1876 41.2505 31.3025 42.5692 29.7511 43.5687C28.2048 44.5618 26.0217 45.196 23.6032 45.1948H23.5749V45.6772L23.5736 46.1596H23.6032C26.1889 46.1583 28.5367 45.4919 30.2721 44.3805C31.9998 43.2754 33.1473 41.6841 33.1524 39.8599V39.8368L32.7575 39.8548L33.1524 39.8535V39.8368L32.7575 39.8548L33.1524 39.8535V39.8509C33.1499 38.0254 32.0036 36.4303 30.2746 35.3188C28.5392 34.2021 26.1889 33.5293 23.598 33.5229H23.5993H23.5697C20.984 33.5242 18.6362 34.1906 16.9008 35.3021C15.1732 36.4071 14.0244 37.9984 14.0192 39.8226L14.5016 39.8239L14.0192 39.8085V39.8316C14.0218 41.6571 15.168 43.2522 16.897 44.3637C18.6324 45.4804 20.984 46.1532 23.5736 46.1596L23.5749 45.6772ZM75.5174 45.7775L75.9998 45.7788V45.6707C75.9998 35.814 73.4179 26.7061 69.0466 19.3425C68.9244 19.1367 68.6697 19.0518 68.4497 19.1418L62.9991 21.3661L67.0089 16.8751C67.1594 16.7066 67.1723 16.457 67.0424 16.273C60.5793 7.20237 51.1356 1.44041 40.5855 1.41984H40.5314C30.0495 1.41984 20.6405 7.08788 14.1569 16.0479C14.0244 16.2306 14.0373 16.4815 14.1878 16.6513L18.2876 21.2799L12.6916 18.9707C12.4716 18.8794 12.2169 18.963 12.0947 19.1675C7.65394 26.5517 5.0193 35.715 5 45.6424V45.7312C5.00129 56.3392 8.60589 66.0698 14.0089 73.6894C14.1389 73.872 14.3769 73.9415 14.5853 73.8566L17.948 72.484L15.5822 75.134C15.4266 75.309 15.4189 75.5714 15.5642 75.7554C22.4814 84.4672 31.7798 89.9757 40.4144 90.0001H40.4491C48.6836 89.9885 58.0733 84.4479 65.1564 75.6692C65.3044 75.4865 65.298 75.2241 65.1423 75.0479L62.9489 72.5715L66.0865 73.8669C66.2924 73.9518 66.5303 73.8849 66.6615 73.7035C72.1894 66.0994 75.978 56.3855 75.9998 45.7788L75.5174 45.7775H75.035C75.0157 56.1526 71.3043 65.6761 65.8807 73.1375L66.2705 73.4205L66.4544 72.9741L61.3885 70.8836C61.1813 70.7974 60.9407 70.8669 60.8108 71.0496C60.6809 71.2323 60.6938 71.4819 60.843 71.6491L64.4193 75.6872L64.7808 75.3669L64.4052 75.0646C57.4661 83.685 48.2436 89.0469 40.4491 89.0353H40.4157C32.2005 89.0276 23.095 83.7043 16.3207 75.1546L15.9425 75.4556L16.3027 75.776L20.0578 71.5706C20.207 71.4034 20.2211 71.1551 20.0912 70.9711C19.9626 70.7885 19.7233 70.7177 19.5149 70.8026L14.2199 72.9638L14.4026 73.4102L14.7962 73.1311C9.49741 65.6607 5.96483 56.1179 5.96483 45.7312V45.6437C5.98413 35.8861 8.57502 26.8913 12.9219 19.6654L12.5077 19.4171L12.3237 19.8622L19.8481 22.9677C20.0552 23.0526 20.2945 22.9844 20.4244 22.8017C20.5543 22.619 20.5415 22.3695 20.3935 22.201L14.9094 16.0106L14.5479 16.331L14.939 16.614C21.285 7.85075 30.4097 2.38467 40.5314 2.38467H40.5842C50.7702 2.40396 59.9296 7.96138 66.2563 16.8339L66.6487 16.5535L66.2885 16.2319L60.8893 22.2794C60.7401 22.4467 60.7259 22.695 60.8559 22.8789C60.9845 23.0616 61.2238 23.1324 61.4322 23.0474L68.8138 20.0359L68.6311 19.5882L68.2169 19.8352C72.4956 27.0418 75.035 35.9826 75.035 45.6707V45.7775H75.5174Z" fill="#CEA561"/>
</svg>
