<svg width="110" height="90" viewBox="0 0 110 90" fill="none" xmlns="http://www.w3.org/2000/svg">
<path d="M93.6615 58.2979C94.772 60.5521 93.8408 63.2814 91.5841 64.3915L65.6175 77.1683C63.3637 78.2764 60.6358 77.3475 59.5244 75.0928L35.0507 25.3541C33.9401 23.0989 34.871 20.3701 37.1273 19.2615L63.0939 6.48365C65.3482 5.3741 68.0799 6.30297 69.1889 8.55723L93.6615 58.2979Z" fill="#151515" fill-opacity="0.7"/>
<path d="M93.6616 58.2976L92.8806 58.6821C93.1383 59.2063 93.2588 59.7565 93.2588 60.3013C93.2578 61.6609 92.5029 62.9695 91.1997 63.6102L65.233 76.3871C64.7093 76.6444 64.1587 76.7643 63.6138 76.7648C62.2537 76.7638 60.9461 76.0099 60.3054 74.7081L35.8317 24.9694C35.5734 24.4442 35.4521 23.8931 35.452 23.3486C35.4531 21.9886 36.2072 20.6815 37.511 20.0422L63.4779 7.26484C64.003 7.0066 64.5542 6.88567 65.0996 6.88519C66.4601 6.88615 67.7682 7.64014 68.4075 8.94143L92.8801 58.6816L93.6616 58.2976L94.4425 57.9132L69.9699 8.17251C69.0261 6.25645 67.0999 5.14307 65.0996 5.14403C64.295 5.14403 63.4765 5.32469 62.709 5.70241L36.743 18.4798C34.8254 19.4221 33.7098 21.3478 33.7109 23.3486C33.7107 24.1527 33.8916 24.9713 34.2693 25.7383L58.7434 75.477C59.6882 77.3926 61.6134 78.5069 63.6138 78.506C64.4169 78.506 65.2345 78.3263 66.0015 77.9495L91.9686 65.1722C93.8851 64.2279 95.0014 62.3022 95 60.3013C95.0004 59.4982 94.8203 58.6797 94.4425 57.9132L93.6616 58.2976Z" fill="#CEA561"/>
<path d="M88.6538 56.8514C89.6246 58.8214 88.953 61.1354 87.153 62.0205L66.4431 72.2111C64.6408 73.0971 62.3986 72.2155 61.4307 70.2474L40.0524 26.8032C39.0858 24.8341 39.752 22.5211 41.5549 21.6341L62.2675 11.4435C64.067 10.5584 66.3121 11.4391 67.2776 13.4077L88.6538 56.8514Z" fill="#151515" fill-opacity="0.7"/>
<path d="M88.6539 56.8511L87.8729 57.2361C88.1153 57.728 88.228 58.2406 88.228 58.7335C88.228 59.2798 88.0883 59.7992 87.8373 60.2318C87.5858 60.6649 87.2283 61.0118 86.7687 61.2392L66.0588 71.4299C65.7052 71.6033 65.3337 71.6843 64.955 71.6847C63.9009 71.6881 62.7827 71.0276 62.2123 69.8631L40.8335 26.4184C40.592 25.927 40.4793 25.4134 40.4793 24.921C40.4793 24.3747 40.6184 23.8553 40.8693 23.4227C41.1208 22.9896 41.4777 22.6422 41.9391 22.4153L62.6516 12.2241C63.0048 12.0507 63.3753 11.9698 63.754 11.9693C64.8076 11.9659 65.9268 12.6264 66.4963 13.7909L66.4967 13.7919L87.8729 57.2356L88.6539 56.8511L89.4349 56.4672L68.0587 13.0234L68.0592 13.0244C67.2069 11.29 65.5187 10.231 63.754 10.2281C63.1214 10.2276 62.4801 10.3678 61.8832 10.6622L41.1708 20.8524C40.3888 21.2364 39.7726 21.8396 39.3622 22.5502C38.9506 23.2618 38.7383 24.0808 38.7383 24.921C38.7383 25.6789 38.9116 26.4555 39.2709 27.1869L60.6498 70.6316C61.5026 72.3631 63.1893 73.4225 64.955 73.4259C65.5871 73.4264 66.2289 73.2862 66.8268 72.9923L87.5371 62.8012C88.3181 62.4177 88.9334 61.8149 89.3443 61.1043C89.7558 60.3932 89.9687 59.5742 89.9687 58.7335C89.9687 57.9756 89.7953 57.1985 89.4349 56.4667L88.6539 56.8511Z" fill="#CEA561"/>
<path d="M44.0355 24.839C44.3489 25.475 44.0854 26.2458 43.4481 26.558C42.8139 26.8717 42.0438 26.6096 41.7299 25.9731C41.4177 25.3357 41.6765 24.5683 42.3143 24.2551C42.9504 23.9415 43.7229 24.2026 44.0355 24.839Z" fill="#CEA561"/>
<path d="M49.2701 22.2615C49.5813 22.8974 49.3197 23.6683 48.6808 23.9814C48.0444 24.2946 47.2797 24.0311 46.9644 23.3951C46.6518 22.7587 46.9112 21.9912 47.5491 21.6771C48.1846 21.3639 48.9555 21.6251 49.2701 22.2615Z" fill="#CEA561"/>
<path d="M54.4992 19.6863C54.8119 20.3223 54.5493 21.0931 53.9124 21.4058C53.275 21.718 52.5085 21.4549 52.1954 20.819C51.8807 20.1825 52.1443 19.4146 52.7812 19.1014C53.4128 18.7883 54.187 19.0494 54.4992 19.6863Z" fill="#CEA561"/>
<path d="M59.7399 17.1093C60.0526 17.7453 59.791 18.5157 59.156 18.8293C58.519 19.142 57.7501 18.8789 57.4374 18.2435C57.1233 17.6065 57.3859 16.8381 58.0219 16.5245C58.6578 16.2123 59.4277 16.4734 59.7399 17.1093Z" fill="#CEA561"/>
<path d="M64.9718 14.5347C65.2854 15.1707 65.0238 15.9401 64.3883 16.2537C63.7524 16.5669 62.982 16.3043 62.6674 15.6688C62.3533 15.0329 62.6187 14.264 63.2518 13.9498C63.8911 13.6362 64.6572 13.8978 64.9718 14.5347Z" fill="#CEA561"/>
<path d="M48.6118 26.7461C48.9268 27.383 48.6633 28.1519 48.0245 28.467C47.3895 28.7797 46.6202 28.5166 46.3072 27.8807C45.9959 27.2438 46.256 26.4744 46.8931 26.1607C47.5302 25.8476 48.3015 26.1092 48.6118 26.7461Z" fill="#CEA561"/>
<path d="M53.8516 24.1707C54.1648 24.8076 53.9022 25.5766 53.2658 25.8912C52.6279 26.2034 51.8618 25.9403 51.5458 25.3039C51.2336 24.6674 51.4952 23.898 52.1307 23.5849C52.769 23.2717 53.5389 23.5333 53.8516 24.1707Z" fill="#CEA561"/>
<path d="M59.0803 21.5952C59.3953 22.2316 59.1308 23.003 58.4963 23.3142C57.8599 23.6278 57.09 23.3648 56.7768 22.7279C56.4642 22.0914 56.7248 21.323 57.3593 21.0084C57.9943 20.6967 58.7685 20.9578 59.0803 21.5952Z" fill="#CEA561"/>
<path d="M64.3153 19.0197C64.629 19.6556 64.3683 20.4255 63.7338 20.7377C63.0945 21.0518 62.3275 20.7883 62.0168 20.1518C61.7021 19.5144 61.9604 18.7465 62.5963 18.4328C63.2347 18.1197 64.0012 18.3823 64.3153 19.0197Z" fill="#CEA561"/>
<path d="M47.3809 31.6456C47.6915 32.2826 47.428 33.0505 46.7909 33.3637C46.1572 33.6768 45.3879 33.4162 45.0751 32.7802C44.7603 32.1424 45.0203 31.3725 45.6576 31.0603C46.2946 30.7466 47.0672 31.0087 47.3809 31.6456Z" fill="#CEA561"/>
<path d="M52.6155 29.0707C52.9296 29.7057 52.6637 30.4737 52.0292 30.7873C51.3918 31.101 50.6262 30.8398 50.3126 30.2029C49.9994 29.5655 50.2582 28.7961 50.8941 28.4839C51.5306 28.1703 52.3019 28.4324 52.6155 29.0707Z" fill="#CEA561"/>
<path d="M57.8503 26.4939C58.1615 27.1299 57.8994 27.8979 57.2635 28.2101C56.6275 28.5237 55.8596 28.263 55.5474 27.6271C55.2328 26.9887 55.4939 26.2193 56.1322 25.9071C56.7658 25.5945 57.5371 25.8561 57.8503 26.4939Z" fill="#CEA561"/>
<path d="M63.0835 23.9183C63.3962 24.5533 63.1355 25.3222 62.4986 25.6349C61.8641 25.9485 61.0913 25.6879 60.7811 25.0519C60.4669 24.414 60.7305 23.6441 61.3645 23.3315C62.0014 23.0178 62.7708 23.2809 63.0835 23.9183Z" fill="#CEA561"/>
<path d="M68.3238 21.3413C68.6365 21.9768 68.3735 22.7452 67.7394 23.0593C67.1011 23.3715 66.3288 23.1123 66.018 22.4764C65.7058 21.839 65.9699 21.0676 66.6029 20.755C67.2389 20.4408 68.0092 20.7039 68.3238 21.3413Z" fill="#CEA561"/>
<path d="M51.9645 33.5524C52.2777 34.1878 52.0151 34.9568 51.3767 35.2714C50.7408 35.5845 49.9714 35.3215 49.6587 34.687C49.348 34.051 49.6067 33.2816 50.2436 32.9689C50.88 32.6538 51.6499 32.9169 51.9645 33.5524Z" fill="#CEA561"/>
<path d="M57.1992 30.9769C57.5133 31.6119 57.2498 32.3804 56.6109 32.6954C55.9735 33.0076 55.2075 32.7465 54.8924 32.111C54.5821 31.4756 54.8428 30.7047 55.4792 30.3925C56.1161 30.0774 56.8889 30.341 57.1992 30.9769Z" fill="#CEA561"/>
<path d="M62.4318 28.4017C62.7454 29.0362 62.4809 29.8061 61.8449 30.1197C61.2071 30.4329 60.441 30.1713 60.1303 29.5358C59.8142 28.8994 60.0758 28.13 60.7113 27.8168C61.3473 27.5032 62.1205 27.7657 62.4318 28.4017Z" fill="#CEA561"/>
<path d="M67.6681 25.8262C67.9784 26.4612 67.7192 27.2301 67.0803 27.5437C66.4453 27.8555 65.6793 27.5924 65.3676 26.9584C65.0535 26.3224 65.3141 25.5535 65.9472 25.2413C66.586 24.9272 67.3549 25.1902 67.6681 25.8262Z" fill="#CEA561"/>
<path d="M50.7292 38.4496C51.0438 39.087 50.7794 39.8579 50.141 40.1706C49.5074 40.4837 48.7414 40.2221 48.4244 39.5842C48.1137 38.9492 48.3719 38.1813 49.0098 37.8676C49.6476 37.5554 50.4185 37.8156 50.7292 38.4496Z" fill="#CEA561"/>
<path d="M55.9651 35.8738C56.2806 36.5117 56.0176 37.2821 55.3807 37.5952C54.7437 37.9079 53.9796 37.6448 53.6631 37.0074C53.3519 36.3739 53.6096 35.605 54.2465 35.2918C54.882 34.9782 55.6543 35.2388 55.9651 35.8738Z" fill="#CEA561"/>
<path d="M61.1968 33.2981C61.5095 33.936 61.245 34.7059 60.6095 35.0181C59.9764 35.3317 59.2075 35.0692 58.8958 34.4313C58.5807 33.7977 58.8394 33.0288 59.4783 32.7152C60.1137 32.403 60.8836 32.6646 61.1968 33.2981Z" fill="#CEA561"/>
<path d="M66.4357 30.7212C66.7484 31.3591 66.4863 32.1285 65.848 32.4421C65.212 32.7558 64.4426 32.4922 64.1323 31.8548C63.8192 31.2213 64.0808 30.4524 64.7172 30.1382C65.3512 29.8265 66.1221 30.0881 66.4357 30.7212Z" fill="#CEA561"/>
<path d="M71.6729 28.146C71.9895 28.7839 71.724 29.5528 71.0885 29.8675C70.4497 30.1796 69.6817 29.918 69.371 29.2806C69.0564 28.6466 69.3209 27.8772 69.9559 27.5631C70.5899 27.2504 71.3598 27.512 71.6729 28.146Z" fill="#CEA561"/>
<path d="M55.3088 40.3594C55.6201 40.9959 55.3609 41.7648 54.7225 42.0789C54.0866 42.3921 53.3176 42.1295 53.0045 41.4931C52.6889 40.8576 52.9534 40.0887 53.586 39.7746C54.2272 39.4614 54.9957 39.7235 55.3088 40.3594Z" fill="#CEA561"/>
<path d="M60.5465 37.7835C60.8635 38.4194 60.6009 39.1898 59.9611 39.5034C59.3247 39.8156 58.5567 39.5526 58.2416 38.9166C57.928 38.2817 58.1915 37.5122 58.8284 37.1986C59.4653 36.885 60.2338 37.1471 60.5465 37.7835Z" fill="#CEA561"/>
<path d="M65.7815 35.2072C66.0951 35.8427 65.8316 36.615 65.1928 36.9262C64.5597 37.2404 63.7884 36.9764 63.4757 36.3404C63.163 35.7054 63.4251 34.9365 64.0611 34.6219C64.697 34.3102 65.4683 34.5708 65.7815 35.2072Z" fill="#CEA561"/>
<path d="M71.0178 32.6313C71.3271 33.2678 71.0679 34.0377 70.432 34.3494C69.7941 34.663 69.0271 34.399 68.7144 33.764C68.4013 33.1285 68.6629 32.3596 69.2969 32.0474C69.9348 31.7328 70.7013 31.9959 71.0178 32.6313Z" fill="#CEA561"/>
<path d="M54.0759 45.2578C54.3881 45.8923 54.1236 46.6641 53.4867 46.9773C52.8522 47.2904 52.0837 47.0283 51.7681 46.3919C51.4569 45.7559 51.7166 44.9865 52.3554 44.6743C52.9919 44.3602 53.7651 44.6218 54.0759 45.2578Z" fill="#CEA561"/>
<path d="M59.3139 42.6819C59.6261 43.3174 59.3649 44.0882 58.7271 44.4018C58.0916 44.7145 57.3241 44.45 57.0105 43.815C56.6997 43.1791 56.9575 42.4111 57.5939 42.098C58.2279 41.7843 59.0002 42.0464 59.3139 42.6819Z" fill="#CEA561"/>
<path d="M64.5481 40.1058C64.8598 40.7413 64.5978 41.5117 63.9628 41.8244C63.3278 42.137 62.5593 41.875 62.2467 41.239C61.933 40.6035 62.1917 39.8346 62.8291 39.521C63.4641 39.2083 64.2359 39.4704 64.5481 40.1058Z" fill="#CEA561"/>
<path d="M69.7809 37.5295C70.0951 38.1649 69.833 38.9353 69.1965 39.2489C68.5606 39.5621 67.7921 39.299 67.4795 38.6631C67.1678 38.0271 67.4274 37.2587 68.0629 36.9446C68.6989 36.6314 69.4697 36.8935 69.7809 37.5295Z" fill="#CEA561"/>
<path d="M75.0188 34.954C75.3354 35.589 75.0689 36.3589 74.433 36.673C73.7965 36.9852 73.0252 36.7241 72.7145 36.0876C72.3999 35.4526 72.6658 34.6818 73.3003 34.3691C73.9372 34.0545 74.7057 34.3176 75.0188 34.954Z" fill="#CEA561"/>
<path d="M58.6565 47.166C58.9692 47.801 58.709 48.5723 58.0721 48.8864C57.4347 49.2001 56.6668 48.9365 56.3507 48.3006C56.038 47.6641 56.3001 46.8952 56.9351 46.5816C57.5773 46.2665 58.3458 46.5291 58.6565 47.166Z" fill="#CEA561"/>
<path d="M63.8932 44.59C64.2078 45.225 63.9486 45.9958 63.3088 46.3095C62.6728 46.6226 61.902 46.3596 61.5893 45.7232C61.2771 45.0867 61.5358 44.3178 62.1737 44.0042C62.8135 43.6896 63.5824 43.9531 63.8932 44.59Z" fill="#CEA561"/>
<path d="M69.1338 42.0151C69.4441 42.6491 69.182 43.4214 68.5451 43.7336C67.9111 44.0482 67.1383 43.7842 66.828 43.1477C66.5153 42.5118 66.7731 41.7428 67.4134 41.4287C68.0484 41.116 68.8178 41.3777 69.1338 42.0151Z" fill="#CEA561"/>
<path d="M74.3649 39.4395C74.6738 40.0736 74.4165 40.8444 73.7796 41.1581C73.1427 41.4722 72.3766 41.2062 72.064 40.5712C71.7469 39.9343 72.0114 39.1659 72.6455 38.8532C73.2809 38.5396 74.0499 38.8026 74.3649 39.4395Z" fill="#CEA561"/>
<path d="M57.4305 52.0633C57.7451 52.6993 57.4772 53.4706 56.8422 53.7833C56.2053 54.096 55.4393 53.8334 55.1247 53.1979C54.8115 52.5615 55.0721 51.7911 55.711 51.4785C56.344 51.1663 57.1159 51.4284 57.4305 52.0633Z" fill="#CEA561"/>
<path d="M62.6593 49.4881C62.97 50.1245 62.7074 50.8953 62.0691 51.2075C61.4365 51.5197 60.6671 51.2567 60.3549 50.6212C60.0427 49.9853 60.3019 49.2159 60.9364 48.9032C61.5743 48.5905 62.3456 48.8516 62.6593 49.4881Z" fill="#CEA561"/>
<path d="M67.8997 46.9117C68.2133 47.5481 67.9522 48.319 67.3138 48.6307C66.6803 48.9439 65.9142 48.6813 65.5972 48.0444C65.2836 47.4089 65.5466 46.6395 66.1816 46.3273C66.8157 46.0146 67.587 46.2757 67.8997 46.9117Z" fill="#CEA561"/>
<path d="M73.1299 44.3336C73.4445 44.971 73.1819 45.7409 72.5474 46.0535C71.91 46.3667 71.143 46.1041 70.826 45.4672C70.5157 44.8317 70.7764 44.0623 71.4133 43.7497C72.0473 43.4365 72.8191 43.6986 73.1299 44.3336Z" fill="#CEA561"/>
<path d="M78.3668 41.7595C78.6828 42.3964 78.4183 43.1658 77.7824 43.4785C77.146 43.7907 76.3737 43.5305 76.0615 42.8941C75.7483 42.2586 76.0128 41.4868 76.6483 41.1746C77.2866 40.8614 78.0541 41.1235 78.3668 41.7595Z" fill="#CEA561"/>
<path d="M62.0075 53.9717C62.3221 54.6095 62.06 55.377 61.4217 55.6916C60.7838 56.0057 60.0163 55.7432 59.7017 55.1058C59.391 54.4713 59.6492 53.7014 60.2881 53.3892C60.9254 53.0741 61.6977 53.3371 62.0075 53.9717Z" fill="#CEA561"/>
<path d="M67.2437 51.3955C67.5573 52.0329 67.2972 52.8013 66.6569 53.1159C66.0224 53.4291 65.2539 53.1665 64.9413 52.5291C64.6286 51.8941 64.8863 51.1247 65.5228 50.813C66.1607 50.4974 66.932 50.7615 67.2437 51.3955Z" fill="#CEA561"/>
<path d="M72.4787 48.8185C72.7923 49.4559 72.5283 50.2257 71.8924 50.5389C71.254 50.8521 70.488 50.5895 70.1743 49.9526C69.8636 49.3181 70.1223 48.5482 70.7587 48.236C71.3947 47.9223 72.1665 48.1849 72.4787 48.8185Z" fill="#CEA561"/>
<path d="M77.7122 46.2449C78.0249 46.8818 77.7671 47.6512 77.1297 47.9644C76.4928 48.2766 75.7268 48.0135 75.4141 47.3771C75.1005 46.7426 75.3616 45.9727 75.9932 45.6605C76.632 45.3474 77.4019 45.6099 77.7122 46.2449Z" fill="#CEA561"/>
<path d="M60.7774 58.8697C61.0945 59.5071 60.8304 60.2785 60.194 60.5911C59.5581 60.9053 58.7901 60.6422 58.4765 60.0043C58.1633 59.3698 58.423 58.599 59.0599 58.2858C59.6968 57.9731 60.4672 58.2362 60.7774 58.8697Z" fill="#CEA561"/>
<path d="M66.0148 56.2934C66.3256 56.9308 66.062 57.7012 65.4251 58.0144C64.7921 58.3285 64.0227 58.0635 63.7105 57.4261C63.3983 56.793 63.657 56.0227 64.2915 55.7095C64.9308 55.3964 65.6997 55.6599 66.0148 56.2934Z" fill="#CEA561"/>
<path d="M71.248 53.7172C71.5588 54.3546 71.2986 55.1249 70.6636 55.4371C70.0243 55.7508 69.2583 55.4877 68.9446 54.8503C68.632 54.2163 68.8931 53.4459 69.529 53.1323C70.1631 52.8206 70.9354 53.0836 71.248 53.7172Z" fill="#CEA561"/>
<path d="M76.487 51.1411C76.7992 51.7785 76.5404 52.5489 75.9026 52.862C75.2681 53.1757 74.4958 52.9121 74.1831 52.2747C73.8704 51.6412 74.1306 50.8703 74.7675 50.5567C75.403 50.2426 76.1753 50.5071 76.487 51.1411Z" fill="#CEA561"/>
<path d="M81.7191 48.5652C82.0328 49.2026 81.7707 49.972 81.1357 50.2861C80.4988 50.5988 79.727 50.3372 79.4124 49.6998C79.1002 49.0662 79.3652 48.2934 79.9982 47.9812C80.6361 47.6662 81.4074 47.9311 81.7191 48.5652Z" fill="#CEA561"/>
<path d="M65.3527 60.7777C65.6697 61.4137 65.4047 62.1826 64.7669 62.4977C64.1314 62.8113 63.363 62.5483 63.0508 61.9109C62.7371 61.2759 62.9978 60.5074 63.6356 60.1938C64.2721 59.8797 65.042 60.1413 65.3527 60.7777Z" fill="#CEA561"/>
<path d="M70.5945 58.2029C70.9067 58.8399 70.6455 59.6078 70.0043 59.9229C69.3722 60.2356 68.6023 59.9735 68.2901 59.3366C67.9745 58.7006 68.2361 57.9322 68.8735 57.619C69.5124 57.3044 70.2808 57.5665 70.5945 58.2029Z" fill="#CEA561"/>
<path d="M75.8301 55.6256C76.1408 56.2625 75.8816 57.0333 75.2442 57.346C74.6078 57.6601 73.8379 57.3971 73.5267 56.7601C73.214 56.1242 73.4751 55.3558 74.1111 55.0416C74.7451 54.7294 75.5198 54.9901 75.8301 55.6256Z" fill="#CEA561"/>
<path d="M81.0622 53.0511C81.3729 53.6885 81.1127 54.4574 80.4792 54.7701C79.8408 55.0842 79.0738 54.8197 78.7626 54.1838C78.4485 53.5478 78.7062 52.7798 79.3432 52.4667C79.9781 52.1535 80.7471 52.4151 81.0622 53.0511Z" fill="#CEA561"/>
<path d="M64.1238 65.678C64.437 66.3125 64.1754 67.0838 63.537 67.397C62.902 67.7092 62.135 67.4461 61.8199 66.8116C61.5077 66.1752 61.7655 65.4048 62.4039 65.0931C63.0417 64.7794 63.8131 65.042 64.1238 65.678Z" fill="#CEA561"/>
<path d="M69.361 63.1016C69.6737 63.7366 69.4092 64.5084 68.7732 64.8211C68.1349 65.1328 67.3698 64.8698 67.0576 64.2353C66.7469 63.5993 67.0032 62.8289 67.6401 62.5167C68.2746 62.2036 69.044 62.4657 69.361 63.1016Z" fill="#CEA561"/>
<path d="M74.5923 60.5257C74.9069 61.1611 74.6434 61.9325 74.0089 62.2446C73.3715 62.5568 72.6035 62.2938 72.2928 61.6583C71.9801 61.0224 72.2384 60.2525 72.8772 59.9408C73.5107 59.6281 74.2826 59.8892 74.5923 60.5257Z" fill="#CEA561"/>
<path d="M79.8331 57.9494C80.1463 58.5849 79.8818 59.3552 79.2458 59.6694C78.6128 59.9816 77.8419 59.719 77.5312 59.083C77.2175 58.4466 77.4787 57.6767 78.1146 57.3645C78.7511 57.0514 79.5219 57.313 79.8331 57.9494Z" fill="#CEA561"/>
<path d="M85.0707 55.3735C85.3829 56.008 85.1194 56.7784 84.4873 57.0921C83.8484 57.4038 83.0766 57.1436 82.7639 56.5072C82.4517 55.8717 82.7167 55.0999 83.3498 54.7877C83.9867 54.4745 84.758 54.7361 85.0707 55.3735Z" fill="#CEA561"/>
<path d="M68.7075 67.5852C69.0197 68.2207 68.7595 68.9896 68.1202 69.3052C67.4857 69.6174 66.7153 69.3543 66.4017 68.7189C66.0885 68.0829 66.3511 67.3125 66.9875 67.0013C67.6254 66.6862 68.3943 66.9483 68.7075 67.5852Z" fill="#CEA561"/>
<path d="M73.9395 65.0096C74.2532 65.6451 73.9911 66.414 73.3503 66.7291C72.7148 67.0408 71.9474 66.7792 71.6318 66.1423C71.3191 65.5063 71.5817 64.7359 72.2196 64.4252C72.8574 64.1091 73.6244 64.3736 73.9395 65.0096Z" fill="#CEA561"/>
<path d="M79.1788 62.4325C79.4895 63.0685 79.2294 63.8389 78.5925 64.1525C77.9551 64.4647 77.1871 64.2036 76.8763 63.5662C76.5603 62.9307 76.8219 62.1618 77.4588 61.8481C78.0938 61.535 78.8651 61.7971 79.1788 62.4325Z" fill="#CEA561"/>
<path d="M84.4149 59.8584C84.7252 60.4943 84.466 61.2642 83.8301 61.5769C83.1922 61.8886 82.4281 61.626 82.1149 60.9906C81.7984 60.3541 82.0605 59.5862 82.6945 59.2725C83.3329 58.9594 84.0984 59.2224 84.4149 59.8584Z" fill="#CEA561"/>
<path d="M64.0315 84.13H20.9883V80.1312H64.0315V84.13Z" fill="#151515" fill-opacity="0.7"/>
<path d="M64.0312 84.13V83.259H21.8584V81.0018H63.1602L63.1607 84.13H64.0312H64.9014V79.2606H20.1172V85.0001H64.9014V84.13H64.0312Z" fill="#CEA561"/>
<path d="M64.0315 50.1398H20.9883V46.1419H64.0315V50.1398Z" fill="#151515" fill-opacity="0.7"/>
<path d="M64.0312 50.1403V49.2697H21.858V47.013H63.1602L63.1607 50.1403H64.0312H64.9014V45.2719H20.1172V51.0109H64.9014V50.1403H64.0312Z" fill="#CEA561"/>
<path d="M66.2465 46.1417H18.7734C18.7734 46.1417 18.7734 40.9659 18.7734 38.4949C18.7734 33.6746 66.2465 34.6151 66.2465 38.4949C66.2465 41.7888 66.2465 46.1417 66.2465 46.1417Z" fill="#151515" fill-opacity="0.7"/>
<path d="M66.2462 46.1422V45.2716H18.7731V46.1422H19.6433C19.6433 46.1422 19.6433 40.9664 19.6433 38.4954H19.5101L19.6383 38.5334L19.6433 38.4954H19.5101L19.6383 38.5334L19.5807 38.5161L19.6356 38.5407L19.6383 38.5334L19.5807 38.5161L19.6356 38.5407L19.6505 38.518C19.6927 38.453 19.8952 38.2771 20.2537 38.1071C20.8791 37.8007 21.9331 37.4923 23.2676 37.2374C25.2738 36.8506 27.9245 36.562 30.9109 36.3736C33.8979 36.1843 37.2243 36.0937 40.6039 36.0937C46.8081 36.0932 53.1976 36.4001 58 36.9575C60.3988 37.2346 62.4064 37.5785 63.7569 37.9596C64.4294 38.1471 64.9387 38.3518 65.2099 38.5156C65.3453 38.5951 65.4156 38.664 65.4219 38.6741H65.4224L65.6719 38.4954H65.3752C65.3737 38.5922 65.4176 38.6717 65.4224 38.6741L65.6719 38.4954H65.3752C65.3752 41.7893 65.3752 46.1422 65.3752 46.1422H66.2462H67.1163C67.1163 46.1422 67.1163 41.7893 67.1163 38.4954C67.1183 38.1263 66.9583 37.7963 66.768 37.5694C66.5873 37.3512 66.3778 37.1912 66.1475 37.0481C65.7153 36.7841 65.194 36.5779 64.5648 36.3828C63.4663 36.0455 62.0393 35.7589 60.3463 35.5083C55.276 34.7606 47.8301 34.3535 40.6039 34.3525C34.9764 34.353 29.4956 34.6002 25.3747 35.1407C23.3113 35.4129 21.5938 35.7526 20.3192 36.2007C19.68 36.4285 19.1486 36.6771 18.714 37.0149C18.4976 37.1854 18.3024 37.3825 18.1513 37.6301C18 37.8758 17.9008 38.1817 17.9024 38.4954C17.9024 40.9664 17.9024 46.1422 17.9024 46.1422V47.0128H67.1163V46.1422H66.2462Z" fill="#CEA561"/>
<path d="M67.6801 77.4258C67.6801 79.9595 65.6282 82.0138 63.0912 82.0138H21.4568C18.9256 82.0138 16.8711 79.9595 16.8711 77.4258V52.7272C16.8711 50.195 18.9256 48.1406 21.4568 48.1406H63.0912C65.6282 48.1406 67.6801 50.195 67.6801 52.7272V77.4258Z" fill="#151515" fill-opacity="0.7"/>
<path d="M67.6798 77.4263H66.8092C66.8088 78.4559 66.3949 79.3794 65.7209 80.0549C65.0459 80.7289 64.1218 81.1432 63.0908 81.1437H21.4565C20.4288 81.1437 19.5053 80.7294 18.8301 80.0549C18.156 79.3794 17.7415 78.4554 17.741 77.4263V52.7277C17.7415 51.6991 18.1558 50.7755 18.8299 50.1006C19.5051 49.4266 20.4288 49.0122 21.4565 49.0117H63.0908C64.1218 49.0122 65.0459 49.4266 65.7214 50.1006C66.3949 50.7755 66.8088 51.6991 66.8092 52.7277V77.4263H67.6798H68.5504V52.7277C68.5499 49.7142 66.1087 47.2711 63.0908 47.2706H21.4565C18.4437 47.2715 16.0007 49.7137 16 52.7277V77.4263C16.0007 80.4413 18.4435 82.8844 21.4565 82.8849H63.0908C66.1087 82.8849 68.5499 80.4403 68.5504 77.4263H67.6798Z" fill="#CEA561"/>
<path d="M21.5225 44.5545C21.5225 44.7804 21.2722 44.965 20.9688 44.965C20.6626 44.965 20.418 44.7804 20.418 44.5545V39.9655C20.418 39.7391 20.6626 39.555 20.9688 39.555C21.2722 39.555 21.5225 39.7391 21.5225 39.9655V44.5545Z" fill="#CEA561"/>
<path d="M24.6468 44.5545C24.6468 44.7804 24.3969 44.965 24.0926 44.965C23.7849 44.965 23.5391 44.7804 23.5391 44.5545V39.9655C23.5391 39.7391 23.7849 39.555 24.0926 39.555C24.3969 39.555 24.6468 39.7391 24.6468 39.9655V44.5545Z" fill="#CEA561"/>
<path d="M27.7672 44.5545C27.7672 44.7804 27.5173 44.965 27.2143 44.965C26.9058 44.965 26.66 44.7804 26.66 44.5545V39.9655C26.66 39.7391 26.9058 39.555 27.2143 39.555C27.5173 39.555 27.7672 39.7391 27.7672 39.9655V44.5545Z" fill="#CEA561"/>
<path d="M30.8863 44.5545C30.8863 44.7804 30.6388 44.965 30.3332 44.965C30.0302 44.965 29.7812 44.7804 29.7812 44.5545V39.9655C29.7812 39.7391 30.0302 39.555 30.3332 39.555C30.6388 39.555 30.8863 39.7391 30.8863 39.9655V44.5545Z" fill="#CEA561"/>
<path d="M34.0009 44.5545C34.0009 44.7804 33.751 44.965 33.4491 44.965C33.1442 44.965 32.8984 44.7804 32.8984 44.5545V39.9655C32.8984 39.7391 33.1442 39.555 33.4491 39.555C33.751 39.555 34.0009 39.7391 34.0009 39.9655V44.5545Z" fill="#CEA561"/>
<path d="M37.1156 44.5545C37.1156 44.7804 36.8655 44.965 36.5644 44.965C36.2614 44.965 36.0156 44.7804 36.0156 44.5545V39.9655C36.0156 39.7391 36.2614 39.555 36.5644 39.555C36.8655 39.555 37.1156 39.7391 37.1156 39.9655V44.5545Z" fill="#CEA561"/>
<path d="M40.2359 44.5545C40.2359 44.7804 39.9881 44.965 39.6841 44.965C39.3796 44.965 39.1289 44.7804 39.1289 44.5545V39.9655C39.1289 39.7391 39.3796 39.555 39.6841 39.555C39.9881 39.555 40.2359 39.7391 40.2359 39.9655V44.5545Z" fill="#CEA561"/>
<path d="M43.3571 44.5545C43.3571 44.7804 43.1113 44.965 42.807 44.965C42.5017 44.965 42.254 44.7804 42.254 44.5545V39.9655C42.254 39.7391 42.5017 39.555 42.807 39.555C43.1113 39.555 43.3571 39.7391 43.3571 39.9655V44.5545Z" fill="#CEA561"/>
<path d="M46.4754 44.5545C46.4754 44.7804 46.2251 44.965 45.9222 44.965C45.6199 44.965 45.3711 44.7804 45.3711 44.5545V39.9655C45.3711 39.7391 45.6199 39.555 45.9222 39.555C46.2251 39.555 46.4754 39.7391 46.4754 39.9655V44.5545Z" fill="#CEA561"/>
<path d="M49.5911 44.5545C49.5911 44.7804 49.3444 44.965 49.0409 44.965C48.734 44.965 48.4883 44.7804 48.4883 44.5545V39.9655C48.4883 39.7391 48.734 39.555 49.0409 39.555C49.3444 39.555 49.5911 39.7391 49.5911 39.9655V44.5545Z" fill="#CEA561"/>
<path d="M52.7088 44.5545C52.7088 44.7804 52.463 44.965 52.1576 44.965C51.8546 44.965 51.6055 44.7804 51.6055 44.5545V39.9655C51.6055 39.7391 51.8546 39.555 52.1576 39.555C52.463 39.555 52.7088 39.7391 52.7088 39.9655V44.5545Z" fill="#CEA561"/>
<path d="M55.8298 44.5545C55.8298 44.7804 55.5822 44.965 55.2757 44.965C54.9713 44.965 54.7227 44.7804 54.7227 44.5545V39.9655C54.7227 39.7391 54.9713 39.555 55.2757 39.555C55.5822 39.555 55.8298 39.7391 55.8298 39.9655V44.5545Z" fill="#CEA561"/>
<path d="M58.9465 44.5545C58.9465 44.7804 58.7018 44.965 58.3944 44.965C58.0913 44.965 57.8398 44.7804 57.8398 44.5545V39.9655C57.8398 39.7391 58.0913 39.555 58.3944 39.555C58.7018 39.555 58.9465 39.7391 58.9465 39.9655V44.5545Z" fill="#CEA561"/>
<path d="M62.0661 44.5545C62.0661 44.7804 61.819 44.965 61.514 44.965C61.2095 44.965 60.9609 44.7804 60.9609 44.5545V39.9655C60.9609 39.7391 61.2095 39.555 61.514 39.555C61.819 39.555 62.0661 39.7391 62.0661 39.9655V44.5545Z" fill="#CEA561"/>
<path d="M65.1839 44.5545C65.1839 44.7804 64.9377 44.965 64.6332 44.965C64.3277 44.965 64.082 44.7804 64.082 44.5545V39.9655C64.082 39.7391 64.3277 39.555 64.6332 39.555C64.9377 39.555 65.1839 39.7391 65.1839 39.9655V44.5545Z" fill="#CEA561"/>
<path d="M23.5391 63.8876C23.5391 69.9186 32.1662 74.8058 42.8053 74.8058C53.4424 74.8058 62.0682 69.9186 62.0682 63.8876C62.0682 57.8596 53.4424 52.9714 42.8053 52.9714C32.1662 52.9714 23.5391 57.8596 23.5391 63.8876Z" fill="#CEA561"/>
<path d="M41.8422 63.2042L40.7412 71.7853H38.5092L37.8332 67.0522L37.1956 71.7853H35.2723L34.207 63.2042H35.9012L36.3745 67.1659L37.0253 63.2042H39.1494L39.6628 67.1659L40.298 63.2042H41.8422Z" fill="#151515" fill-opacity="0.7"/>
<path d="M44.3698 70.4877V68.6983C43.9789 68.7942 43.7836 68.9696 43.7836 69.2249V70.4877C43.7836 70.6992 43.8852 70.8047 44.0885 70.8047C44.2763 70.8047 44.3698 70.6992 44.3698 70.4877ZM46.0752 71.7861H44.5674V71.5168C44.4394 71.7601 44.0743 71.882 43.4721 71.882C42.5424 71.882 42.0781 71.5187 42.0781 70.7926V69.3984C42.0781 69.0871 42.1905 68.8159 42.4158 68.5846C42.6412 68.3534 43.0954 68.0643 43.7776 67.717C44.1722 67.518 44.3698 67.358 44.3698 67.2385V66.209C44.3698 65.9821 44.272 65.8683 44.0768 65.8683C43.8532 65.8683 43.7412 66.1454 43.7412 66.6999C43.7412 66.7996 43.7475 66.9475 43.7597 67.1427C43.7751 67.3383 43.7836 67.4857 43.7836 67.5854H42.1378V66.1974C42.1378 65.2599 42.8159 64.7911 44.1722 64.7911C45.4406 64.7911 46.0752 65.2796 46.0752 66.2572V71.7861Z" fill="#151515" fill-opacity="0.7"/>
<path d="M51.0457 71.7853H49.1663L48.5804 69.9005L48.0297 71.7853H46.3242L47.6588 68.1112L46.3604 64.8385H48.1613L48.7418 66.6394L49.2029 64.8385H50.8241L49.6813 68.195L51.0457 71.7853Z" fill="#151515" fill-opacity="0.7"/>
<path d="M34.3379 57.3793C34.4084 57.5046 34.488 57.6438 34.5772 57.7975C34.6668 57.9507 34.7616 58.1126 34.8623 58.2832C34.963 58.4532 35.0686 58.6291 35.1776 58.8107C35.2869 58.9928 35.3974 59.1749 35.51 59.3585C35.6219 59.5416 35.733 59.7222 35.8431 59.901C35.9531 60.0797 36.0595 60.2512 36.1624 60.415C36.2653 60.5793 36.3634 60.7335 36.4556 60.8766C36.5479 61.0206 36.6316 61.1488 36.7063 61.2615C36.7063 60.8525 36.7072 60.4801 36.7088 60.1438C36.7101 59.808 36.7133 59.505 36.7182 59.2347C36.7223 58.9644 36.7279 58.7245 36.7342 58.5144C36.7402 58.3044 36.7483 58.1203 36.7581 57.9623C36.768 57.8043 36.7791 57.6698 36.7925 57.559C36.8051 57.4487 36.8202 57.3572 36.8371 57.2854C36.8508 57.2242 36.87 57.1736 36.8955 57.1331L36.9824 57.0358L37.0902 56.9843L37.2126 56.9693C37.3148 56.9693 37.4211 56.9915 37.5312 57.0358V57.059C37.4563 57.164 37.3917 57.3018 37.3371 57.4709C37.2831 57.6405 37.237 57.8288 37.1988 58.0355C37.1608 58.2427 37.1298 58.4604 37.1062 58.6893C37.0822 58.9186 37.0639 59.1456 37.0498 59.371C37.036 59.596 37.0259 59.8123 37.0193 60.0205C37.0121 60.2281 37.0065 60.4131 37.0018 60.5769C36.9989 60.7205 36.9958 60.8607 36.9929 60.997C36.9896 61.1339 36.9873 61.2707 36.9848 61.407C36.9824 61.5439 36.9805 61.6821 36.9788 61.8218C36.9773 61.9616 36.9769 62.1051 36.9769 62.2535L36.6973 62.2901L36.6561 62.2853C36.6103 62.2212 36.552 62.1355 36.481 62.028C36.4099 61.9201 36.3299 61.7968 36.2414 61.658C36.153 61.5188 36.057 61.367 35.9539 61.2023C35.851 61.037 35.7442 60.8655 35.633 60.6868C35.5225 60.508 35.41 60.3254 35.2954 60.1395C35.181 59.953 35.0675 59.7685 34.9551 59.5849C34.8432 59.4019 34.734 59.2231 34.6277 59.0492C34.5219 58.8753 34.4222 58.7115 34.329 58.5578C34.2356 58.4046 34.1512 58.2644 34.075 58.1377C33.9982 58.0109 33.9332 57.903 33.8802 57.8144C33.8768 58.1521 33.8721 58.4807 33.8649 58.8006C33.8583 59.1205 33.8495 59.4279 33.8386 59.7222C33.8279 60.0171 33.816 60.297 33.8034 60.562C33.7902 60.827 33.7761 61.0732 33.761 61.3006C33.7501 61.461 33.739 61.5973 33.7277 61.7106C33.7162 61.8238 33.7021 61.9182 33.6861 61.9934C33.6701 62.069 33.6506 62.1292 33.6271 62.1731C33.603 62.2179 33.5738 62.2506 33.5386 62.2728C33.5036 62.295 33.4612 62.3094 33.4128 62.3152C33.3639 62.3215 33.3056 62.3243 33.2388 62.3243H33.1767L33.1312 62.3234L33.06 62.32L33.028 62.2969C33.0933 62.149 33.1516 61.9832 33.203 61.7997C33.2542 61.6166 33.299 61.4224 33.337 61.2167C33.3752 61.0115 33.4086 60.7995 33.4367 60.5803C33.465 60.3611 33.4882 60.1419 33.5066 59.9217C33.5249 59.702 33.5399 59.4852 33.5512 59.2723C33.5631 59.0593 33.5713 58.857 33.5775 58.6642C33.5835 58.472 33.5873 58.2933 33.5892 58.1285C33.5907 57.9637 33.5913 57.8202 33.5913 57.6978C33.5913 57.6323 33.5866 57.5759 33.5766 57.5296C33.5668 57.4829 33.5484 57.4444 33.5214 57.415C33.4948 57.3851 33.4586 57.3634 33.4128 57.3495C33.3667 57.336 33.3075 57.3292 33.2341 57.3292C33.1823 57.3292 33.1234 57.3321 33.0591 57.3384C32.9941 57.3442 32.9204 57.3533 32.8379 57.3654L32.8125 57.164C32.9408 57.1351 33.0568 57.109 33.1607 57.0864C33.2646 57.0633 33.3583 57.044 33.4426 57.0291C33.5264 57.0137 33.6026 57.0016 33.6701 56.9934C33.7384 56.9852 33.7996 56.9809 33.8545 56.9809C33.911 56.9809 33.9605 56.9876 34.0025 57.0011L34.1195 57.0681C34.1553 57.0985 34.1901 57.1394 34.2244 57.1905C34.2588 57.2415 34.297 57.3047 34.3379 57.3793Z" fill="#151515" fill-opacity="0.7"/>
<path d="M38.4223 61.4725C38.4223 61.5318 38.4285 61.5886 38.4415 61.6431C38.4543 61.6975 38.475 61.7452 38.5032 61.7862L38.6111 61.8835C38.6547 61.9071 38.707 61.9187 38.7682 61.9187C38.8367 61.9187 38.9079 61.9028 38.9809 61.871C39.0543 61.8387 39.1267 61.7948 39.1973 61.738C39.2682 61.6816 39.3364 61.6142 39.4013 61.5356C39.4664 61.4566 39.5248 61.3709 39.5765 61.2774C39.6281 61.1844 39.6715 61.0861 39.7058 60.9835C39.74 60.8804 39.7626 60.7744 39.7736 60.666C39.6606 60.6694 39.5483 60.6761 39.4367 60.6877C39.3253 60.6993 39.2193 60.7171 39.1196 60.7417C39.0192 60.7662 38.9267 60.798 38.841 60.838C38.756 60.8775 38.682 60.9267 38.6203 60.9855C38.5582 61.0447 38.5098 61.1141 38.475 61.1941C38.4396 61.2745 38.4223 61.367 38.4223 61.4725ZM39.8285 59.899C39.8285 59.7781 39.8084 59.6736 39.7689 59.5849C39.7293 59.4967 39.6772 59.424 39.6132 59.3676C39.5491 59.3108 39.4768 59.2689 39.3959 59.2414C39.3143 59.2139 39.2334 59.2 39.1531 59.2C39.0443 59.2 38.9527 59.2115 38.8777 59.2347C38.8028 59.2578 38.7422 59.2891 38.6958 59.3286C38.6491 59.3681 38.6156 59.4153 38.5951 59.4693C38.5742 59.5237 38.5638 59.582 38.5638 59.6446C38.5638 59.7179 38.5775 59.7916 38.6043 59.8658C38.6308 59.94 38.6701 60.0118 38.7219 60.0821L38.7131 60.1072C38.6259 60.15 38.538 60.1717 38.4496 60.1717C38.3978 60.1717 38.3493 60.163 38.3043 60.1471C38.2589 60.1312 38.22 60.1081 38.1876 60.0773C38.1545 60.0469 38.1287 60.0098 38.1095 59.965C38.0901 59.9212 38.0807 59.8711 38.0807 59.8162C38.0807 59.7266 38.1024 59.6413 38.146 59.5623C38.1895 59.4828 38.2473 59.41 38.3188 59.3445C38.3907 59.279 38.4741 59.2202 38.5687 59.1682C38.6632 59.1161 38.7611 59.0723 38.8618 59.0366C38.9624 59.0005 39.0635 58.973 39.1653 58.9543C39.2667 58.935 39.3614 58.9254 39.4486 58.9254C39.6085 58.9254 39.7457 58.947 39.8592 58.9894C39.973 59.0323 40.0652 59.0945 40.1364 59.1764C40.2074 59.2578 40.2597 59.357 40.292 59.4726C40.325 59.5888 40.3415 59.7203 40.3415 59.8667C40.3415 59.9674 40.3372 60.0783 40.3287 60.1987C40.3202 60.3196 40.3109 60.4458 40.2999 60.5779C40.2898 60.7099 40.2798 60.8462 40.2717 60.9869C40.2634 61.1271 40.2591 61.2668 40.2591 61.406C40.2591 61.6257 40.2999 61.791 40.3814 61.9018C40.4633 62.0126 40.5706 62.068 40.7033 62.068C40.8209 62.068 40.9523 62.0242 41.0975 61.9374L41.1638 62.0357C41.0612 62.1383 40.9498 62.2159 40.8294 62.2694C40.7089 62.3229 40.5819 62.3499 40.4492 62.3499C40.35 62.3499 40.2581 62.3325 40.1744 62.2993C40.0903 62.2655 40.0178 62.2154 39.9565 62.1494C39.8955 62.0829 39.8482 61.9991 39.8144 61.8984C39.7811 61.7977 39.7641 61.6807 39.7641 61.5477L39.7679 61.4287C39.7698 61.3892 39.7751 61.3473 39.7824 61.3029H39.7689C39.703 61.4345 39.6274 61.5636 39.5411 61.6913C39.4546 61.8184 39.3601 61.9322 39.257 62.0324C39.1538 62.1326 39.0437 62.2135 38.927 62.2752C38.8103 62.3368 38.6877 62.3682 38.5597 62.3682C38.4543 62.3682 38.358 62.3498 38.2708 62.3128C38.1839 62.2761 38.1095 62.226 38.0478 62.162C37.9857 62.0979 37.9377 62.0218 37.9032 61.9341C37.869 61.8464 37.8515 61.75 37.8515 61.6465C37.8515 61.512 37.8766 61.3897 37.9264 61.2798C37.9757 61.17 38.0446 61.0717 38.1325 60.9845C38.22 60.8973 38.3248 60.8221 38.4471 60.759C38.5695 60.6954 38.7021 60.6429 38.8458 60.601C38.9891 60.5591 39.1412 60.5277 39.3018 60.507C39.4621 60.4863 39.6253 60.4762 39.792 60.4762C39.8021 60.3798 39.8112 60.2869 39.8181 60.1968C39.8247 60.1067 39.8285 60.0074 39.8285 59.899Z" fill="#151515" fill-opacity="0.7"/>
<path d="M42.4485 57.3024C42.384 57.5924 42.3303 57.8921 42.287 58.2009C42.2434 58.5102 42.2061 58.8152 42.1756 59.1163C42.2475 59.1192 42.3171 59.1216 42.3853 59.1231C42.453 59.1245 42.5166 59.126 42.5756 59.1279C42.6342 59.1289 42.6879 59.1298 42.7359 59.1298C42.7839 59.1298 42.824 59.1298 42.856 59.1298C42.995 59.1298 43.1085 59.1216 43.1975 59.1048L43.2158 59.1756L43.2223 59.2353C43.2223 59.3023 43.1945 59.3461 43.1392 59.3659C43.0831 59.3856 43.0028 59.3958 42.8971 59.3958C42.7965 59.3958 42.6838 59.3895 42.5595 59.3775C42.4348 59.3649 42.2987 59.3534 42.1506 59.3428C42.1337 59.5066 42.1195 59.6656 42.1082 59.8207C42.097 59.9753 42.0876 60.1218 42.0804 60.2591C42.0738 60.3964 42.0687 60.5241 42.0659 60.6416C42.0627 60.7592 42.0612 60.8613 42.0612 60.9485C42.0612 61.1119 42.0697 61.2578 42.0866 61.386C42.1032 61.5142 42.1333 61.623 42.1756 61.7122C42.2183 61.8018 42.277 61.8702 42.352 61.9174C42.4269 61.9646 42.5217 61.9887 42.6361 61.9887C42.7184 61.9887 42.8106 61.9738 42.9124 61.9449C43.0134 61.916 43.1292 61.8692 43.2591 61.8052C43.3004 61.8466 43.324 61.8967 43.3302 61.9564C43.2356 62.0191 43.1399 62.0759 43.0439 62.127C42.9476 62.1781 42.8529 62.2219 42.76 62.2585C42.6666 62.2951 42.5763 62.3236 42.4893 62.3433C42.4024 62.3631 42.32 62.3732 42.2423 62.3732C42.1399 62.3732 42.0461 62.3544 41.9614 62.3173C41.8768 62.2797 41.8034 62.2132 41.7418 62.1178C41.6801 62.0224 41.6317 61.8938 41.5973 61.7319C41.563 61.57 41.5459 61.3653 41.5459 61.1181C41.5459 60.9789 41.5483 60.8358 41.5525 60.6884C41.5574 60.5414 41.5634 60.3921 41.5709 60.2408C41.5785 60.0895 41.5888 59.9382 41.6011 59.7874C41.6127 59.6362 41.6268 59.4873 41.6421 59.3404C41.5217 59.3423 41.4095 59.3471 41.3065 59.3558C41.2036 59.364 41.1149 59.3775 41.0421 59.3958L41.0352 59.3635L41.082 59.2729C41.1133 59.245 41.1569 59.2194 41.2125 59.1963C41.2685 59.1732 41.3351 59.1544 41.4129 59.139C41.491 59.124 41.5766 59.113 41.6698 59.1072C41.7045 58.7878 41.7422 58.4866 41.7817 58.2024C41.8212 57.9181 41.8611 57.6647 41.9009 57.4421L41.9432 57.3434L42.0155 57.2817L42.105 57.2494L42.1986 57.2403C42.2488 57.2403 42.2945 57.2456 42.335 57.2562L42.4485 57.3024Z" fill="#151515" fill-opacity="0.7"/>
<path d="M46.4269 58.9713C46.4132 59.1164 46.4003 59.27 46.3887 59.4329C46.3774 59.5957 46.367 59.7581 46.358 59.9209C46.3488 60.0833 46.342 60.2428 46.3373 60.3984C46.3328 60.554 46.3303 60.6976 46.3303 60.8291C46.3303 61.0777 46.345 61.2815 46.374 61.4395C46.4028 61.5975 46.4404 61.7218 46.4859 61.8129C46.5321 61.9035 46.5844 61.9661 46.6431 62.0003C46.702 62.035 46.7613 62.0518 46.8206 62.0518L46.925 62.0384L47.0219 62.0051L47.1057 61.9627L47.171 61.9213L47.2468 62.0268C47.2023 62.0726 47.1518 62.1159 47.0954 62.1564C47.0389 62.1969 46.9796 62.232 46.9171 62.2614C46.8539 62.2913 46.7886 62.3149 46.7199 62.3313C46.6512 62.3481 46.5816 62.3568 46.5116 62.3568C46.4231 62.3568 46.3369 62.339 46.2535 62.3038C46.1704 62.2691 46.0964 62.2099 46.0317 62.1265C45.9665 62.0432 45.9144 61.9324 45.8749 61.7946C45.835 61.6563 45.8153 61.4848 45.8153 61.28C45.8153 61.2145 45.8166 61.1485 45.8197 61.082C45.8228 61.0155 45.8278 60.9452 45.8344 60.87C45.8416 60.7954 45.8504 60.7149 45.8608 60.6296C45.8717 60.5439 45.8837 60.4494 45.8975 60.3459L45.8724 60.341C45.7686 60.7245 45.6562 61.0459 45.5346 61.3056C45.4135 61.5652 45.2887 61.7743 45.161 61.9328C45.0337 62.0918 44.9057 62.2051 44.7777 62.273C44.6492 62.3409 44.5268 62.3751 44.4113 62.3751C44.2737 62.3751 44.1595 62.338 44.0688 62.2638C43.9779 62.1896 43.9054 62.0894 43.8508 61.9617C43.7966 61.8341 43.7586 61.6862 43.7364 61.5175C43.7144 61.3484 43.7031 61.1692 43.7031 60.9804C43.7031 60.8199 43.7082 60.6552 43.7182 60.4865C43.7279 60.3179 43.7413 60.1522 43.7573 59.9898C43.7733 59.827 43.7916 59.6718 43.8122 59.5244C43.8324 59.3775 43.8537 59.2455 43.8753 59.1294L43.9129 59.0263L43.9737 58.967L44.0494 58.939L44.1316 58.9323C44.1834 58.9323 44.2319 58.9386 44.2771 58.9506C44.3223 58.9631 44.3669 58.9805 44.4113 59.0036C44.3835 59.1761 44.3581 59.3481 44.3345 59.5191C44.3104 59.6901 44.2897 59.8559 44.2724 60.0168C44.2551 60.1782 44.2414 60.3333 44.2316 60.4832C44.2212 60.633 44.2163 60.7727 44.2163 60.9023C44.2163 61.043 44.2235 61.1707 44.238 61.2858C44.2526 61.4014 44.2765 61.5002 44.3104 61.5826C44.3439 61.665 44.3872 61.7286 44.4399 61.7739C44.4926 61.8187 44.5569 61.8413 44.6332 61.8413C44.7632 61.8413 44.8959 61.7715 45.0318 61.6317C45.1676 61.492 45.2975 61.2877 45.4214 61.0189C45.5446 60.7506 45.65 60.4485 45.7372 60.1132C45.8241 59.7783 45.88 59.4165 45.9044 59.0287L46.39 58.9689L46.4269 58.9713Z" fill="#151515" fill-opacity="0.7"/>
<path d="M47.6977 62.3136L47.6606 62.3112C47.6731 62.1667 47.6842 62.0086 47.6952 61.8376C47.7058 61.6666 47.716 61.4926 47.7246 61.3163C47.7343 61.14 47.742 60.9651 47.7487 60.7917C47.756 60.6187 47.7617 60.4568 47.767 60.306C47.7728 60.1557 47.7767 60.0213 47.7791 59.9018C47.781 59.7828 47.782 59.6889 47.782 59.6204C47.782 59.5636 47.78 59.5149 47.7752 59.4735L47.7444 59.3704L47.6745 59.3097C47.6437 59.2972 47.6027 59.2904 47.5507 59.2904L47.4707 59.2952L47.379 59.3087L47.2654 59.3328C47.2237 59.3425 47.1751 59.3545 47.1202 59.3685L47.0859 59.2032C47.3394 59.1117 47.5444 59.0471 47.702 59.0095C47.8595 58.9724 47.965 58.9536 48.0204 58.9536C48.1211 58.9536 48.1934 58.983 48.2368 59.0418C48.2806 59.1006 48.3018 59.1883 48.3018 59.3039C48.3018 59.315 48.3008 59.3463 48.2975 59.3983C48.2946 59.4499 48.2902 59.5178 48.2849 59.6007C48.2796 59.684 48.2729 59.7809 48.2652 59.8907C48.258 60.0006 48.2488 60.1186 48.2392 60.2443C48.2291 60.3706 48.2185 60.5016 48.2059 60.6384C48.1939 60.7753 48.1809 60.9111 48.1669 61.047L48.19 61.0494C48.2628 60.7502 48.3457 60.4713 48.4386 60.2126C48.5307 59.9534 48.6347 59.7288 48.7499 59.5381C48.865 59.3468 48.9917 59.197 49.13 59.0876C49.2683 58.9787 49.42 58.9238 49.5848 58.9238C49.6431 58.9238 49.697 58.9329 49.7472 58.9512C49.7977 58.9695 49.8416 58.9956 49.8777 59.0283C49.9143 59.0611 49.9437 59.0996 49.9649 59.1449C49.9866 59.1897 49.9972 59.2393 49.9972 59.2928C49.9972 59.3612 49.9823 59.4277 49.9524 59.4908C49.9225 59.554 49.8758 59.6103 49.8112 59.6595H49.7929C49.7289 59.6055 49.6681 59.5674 49.6108 59.5434C49.554 59.5197 49.4933 59.5082 49.4287 59.5082C49.3603 59.5082 49.2938 59.5207 49.2297 59.5472C49.1652 59.5727 49.1064 59.6103 49.0534 59.6595C48.9662 59.7385 48.8852 59.8435 48.8106 59.9741C48.7359 60.1046 48.6675 60.2492 48.6053 60.4082C48.5437 60.5671 48.4878 60.7338 48.4386 60.9087C48.3885 61.0836 48.3457 61.2537 48.31 61.4194C48.2743 61.5852 48.245 61.7408 48.2228 61.8867C48.2011 62.0322 48.1852 62.1551 48.1761 62.2543L47.6977 62.3136Z" fill="#151515" fill-opacity="0.7"/>
<path d="M50.5118 61.4725C50.5118 61.5318 50.518 61.5886 50.531 61.6431C50.5441 61.6975 50.5648 61.7452 50.5927 61.7862L50.7006 61.8835C50.7445 61.9071 50.7965 61.9187 50.8577 61.9187C50.9266 61.9187 50.9974 61.9028 51.0706 61.871C51.1439 61.8387 51.2161 61.7948 51.287 61.738C51.3578 61.6816 51.4262 61.6142 51.4912 61.5356C51.5558 61.4566 51.6141 61.3709 51.6661 61.2774C51.7177 61.1844 51.761 61.0861 51.7952 60.9835C51.8299 60.8804 51.8526 60.7744 51.8632 60.666C51.7504 60.6694 51.6377 60.6761 51.5264 60.6877C51.4146 60.6993 51.3091 60.7171 51.2094 60.7417C51.1092 60.7662 51.0162 60.798 50.9309 60.838C50.8457 60.8775 50.7715 60.9267 50.7103 60.9855C50.6481 61.0447 50.5995 61.1141 50.5648 61.1941C50.5296 61.2745 50.5118 61.367 50.5118 61.4725ZM51.9181 59.899C51.9181 59.7781 51.8979 59.6736 51.8584 59.5849C51.8189 59.4967 51.7668 59.424 51.7027 59.3676C51.6387 59.3108 51.5664 59.2689 51.4855 59.2414C51.404 59.2139 51.3231 59.2 51.2426 59.2C51.1338 59.2 51.0422 59.2115 50.9675 59.2347C50.8924 59.2578 50.8317 59.2891 50.7854 59.3286C50.7387 59.3681 50.7055 59.4153 50.6847 59.4693C50.664 59.5237 50.6534 59.582 50.6534 59.6446C50.6534 59.7179 50.6674 59.7916 50.6939 59.8658C50.7204 59.94 50.7599 60.0118 50.8114 60.0821L50.8028 60.1072C50.7156 60.15 50.6279 60.1717 50.5392 60.1717C50.4877 60.1717 50.439 60.163 50.3937 60.1471C50.3489 60.1312 50.3094 60.1081 50.2771 60.0773C50.2444 60.0469 50.2184 60.0098 50.1991 59.965C50.1798 59.9212 50.1702 59.8711 50.1702 59.8162C50.1702 59.7266 50.1919 59.6413 50.2357 59.5623C50.2791 59.4828 50.3369 59.41 50.4087 59.3445C50.4805 59.279 50.5638 59.2202 50.6582 59.1682C50.7527 59.1161 50.8509 59.0723 50.9512 59.0366C51.0519 59.0005 51.153 58.973 51.2547 58.9543C51.3563 58.935 51.4513 58.9254 51.538 58.9254C51.6979 58.9254 51.8352 58.947 51.9489 58.9894C52.0626 59.0323 52.1551 59.0945 52.226 59.1764C52.2968 59.2578 52.3493 59.357 52.3816 59.4726C52.4148 59.5888 52.4312 59.7203 52.4312 59.8667C52.4312 59.9674 52.4269 60.0783 52.4182 60.1987C52.41 60.3196 52.4004 60.4458 52.3898 60.5779C52.3792 60.7099 52.3695 60.8462 52.3613 60.9869C52.3531 61.1271 52.3488 61.2668 52.3488 61.406C52.3488 61.6257 52.3898 61.791 52.4712 61.9018C52.5531 62.0126 52.66 62.068 52.793 62.068C52.9106 62.068 53.0416 62.0242 53.1871 61.9374L53.2536 62.0357C53.151 62.1383 53.0392 62.2159 52.9188 62.2694C52.7983 62.3229 52.6716 62.3499 52.5386 62.3499C52.4394 62.3499 52.3478 62.3325 52.264 62.2993C52.1797 62.2655 52.1074 62.2154 52.0462 62.1494C51.9851 62.0829 51.9379 61.9991 51.9041 61.8984C51.8709 61.7977 51.854 61.6807 51.854 61.5477L51.8574 61.4287C51.8593 61.3892 51.8646 61.3473 51.8723 61.3029H51.8584C51.7928 61.4345 51.7167 61.5636 51.631 61.6913C51.5442 61.8184 51.4498 61.9322 51.3467 62.0324C51.2436 62.1326 51.1333 62.2135 51.0167 62.2752C50.9001 62.3368 50.7772 62.3682 50.6496 62.3682C50.5441 62.3682 50.4477 62.3498 50.3605 62.3128C50.2733 62.2761 50.1991 62.226 50.1374 62.162C50.0753 62.0979 50.0276 62.0218 49.9929 61.9341C49.9587 61.8464 49.9413 61.75 49.9413 61.6465C49.9413 61.512 49.9664 61.3897 50.016 61.2798C50.0656 61.17 50.1341 61.0717 50.2222 60.9845C50.3094 60.8973 50.4145 60.8221 50.5368 60.759C50.6592 60.6954 50.7917 60.6429 50.9353 60.601C51.0788 60.5591 51.2311 60.5277 51.3915 60.507C51.5519 60.4863 51.7148 60.4762 51.8815 60.4762C51.8921 60.3798 51.9008 60.2869 51.908 60.1968C51.9147 60.1067 51.9181 60.0074 51.9181 59.899Z" fill="#151515" fill-opacity="0.7"/>
<path d="M54.4766 56.1064C54.4458 56.3661 54.4159 56.632 54.3861 56.9047C54.3567 57.1769 54.3282 57.4525 54.3013 57.7314C54.2748 58.0099 54.2497 58.2898 54.2271 58.5707C54.2039 58.8516 54.1842 59.1286 54.1673 59.4008C54.1505 59.6735 54.1379 59.9414 54.1283 60.2039C54.1196 60.4665 54.1148 60.7185 54.1148 60.9599C54.1148 61.1111 54.1167 61.2407 54.1206 61.3491C54.124 61.4575 54.1302 61.5491 54.1389 61.6238C54.1471 61.6989 54.1587 61.7591 54.1731 61.8049C54.1876 61.8507 54.2054 61.8858 54.2271 61.9104L54.3022 61.9596L54.4053 61.9721C54.479 61.9721 54.5581 61.961 54.6428 61.9388C54.7272 61.9167 54.8134 61.8858 54.9006 61.8463L54.944 61.9653C54.889 62.0097 54.8201 62.0545 54.7368 62.1002C54.6534 62.146 54.5658 62.1884 54.4742 62.2265C54.3827 62.2645 54.2931 62.2954 54.2049 62.319C54.1177 62.3426 54.0411 62.3546 53.9775 62.3546C53.8951 62.3546 53.8296 62.3334 53.7814 62.2915C53.7337 62.2496 53.6971 62.1812 53.6716 62.0867C53.6465 61.9918 53.6306 61.869 53.6234 61.7167C53.6167 61.565 53.6133 61.3795 53.6133 61.1612C53.6133 61.0817 53.6157 60.9685 53.62 60.8211C53.6244 60.6742 53.6311 60.5026 53.6393 60.307C53.648 60.1114 53.6576 59.898 53.6682 59.6658C53.6793 59.4336 53.6904 59.1936 53.7024 58.9455C53.7149 58.6969 53.7275 58.4464 53.7414 58.1939C53.7554 57.9415 53.7689 57.6967 53.7824 57.4611C53.7964 57.2251 53.8094 57.0025 53.8214 56.7934C53.8339 56.5843 53.845 56.3993 53.8561 56.2389L53.8879 56.144L53.9645 56.0799L54.07 56.0442L54.188 56.0332C54.2801 56.0332 54.3759 56.0572 54.4766 56.1064Z" fill="#151515" fill-opacity="0.7"/>
</svg>
