<svg width="40" height="40" viewBox="0 0 40 40" fill="none" xmlns="http://www.w3.org/2000/svg">
<rect x="0.5" y="0.5" width="39" height="39" rx="6.16667" stroke="white"/>
<path d="M13.332 29.9997H8.33203V13.333H13.332V29.9997ZM31.6654 29.9997H26.6654V21.0963C26.6654 18.7763 25.8387 17.6213 24.2004 17.6213C22.902 17.6213 22.0787 18.268 21.6654 19.563V29.9997H16.6654C16.6654 29.9997 16.732 14.9997 16.6654 13.333H20.612L20.917 16.6663H21.0204C22.0454 14.9997 23.6837 13.8697 25.9304 13.8697C27.6387 13.8697 29.0204 14.3447 30.0754 15.538C31.137 16.733 31.6654 18.3363 31.6654 20.588V29.9997Z" fill="white" fill-opacity="0.8"/>
<path d="M10.8332 13.333C12.26 13.333 13.4166 12.2137 13.4166 10.833C13.4166 9.4523 12.26 8.33301 10.8332 8.33301C9.40651 8.33301 8.24991 9.4523 8.24991 10.833C8.24991 12.2137 9.40651 13.333 10.8332 13.333Z" fill="white" fill-opacity="0.8"/>
</svg>
