<svg width="16" height="20" viewBox="0 0 16 20" fill="none" xmlns="http://www.w3.org/2000/svg">
<path fill-rule="evenodd" clip-rule="evenodd" d="M7.99777 19.1889L8.71891 18.3763C9.5372 17.4391 10.2732 16.55 10.9281 15.7043L11.4686 14.9911C13.7258 11.95 14.8549 9.53628 14.8549 7.75228C14.8549 3.94428 11.7852 0.857422 7.99777 0.857422C4.21034 0.857422 1.14062 3.94428 1.14062 7.75228C1.14062 9.53628 2.26977 11.95 4.52691 14.9911L5.06748 15.7043C6.0017 16.9013 6.9791 18.0628 7.99777 19.1889Z" stroke="white" stroke-opacity="0.5" stroke-width="1.14286" stroke-linecap="round" stroke-linejoin="round"/>
<path d="M7.99777 10.5717C9.57572 10.5717 10.8549 9.29252 10.8549 7.71456C10.8549 6.13661 9.57572 4.85742 7.99777 4.85742C6.41981 4.85742 5.14062 6.13661 5.14062 7.71456C5.14062 9.29252 6.41981 10.5717 7.99777 10.5717Z" stroke="white" stroke-opacity="0.5" stroke-width="1.14286" stroke-linecap="round" stroke-linejoin="round"/>
</svg>
