<svg width="22" height="22" viewBox="0 0 22 22" fill="none" xmlns="http://www.w3.org/2000/svg">
<path d="M18.9981 18.9978L15.1377 15.1373M15.1377 15.1373C15.798 14.477 16.3218 13.693 16.6792 12.8302C17.0366 11.9675 17.2205 11.0427 17.2205 10.1089C17.2205 9.17499 17.0366 8.25026 16.6792 7.38748C16.3218 6.5247 15.798 5.74076 15.1377 5.08041C14.4773 4.42006 13.6934 3.89625 12.8306 3.53887C11.9678 3.1815 11.0431 2.99756 10.1092 2.99756C9.17535 2.99756 8.25062 3.1815 7.38784 3.53887C6.52506 3.89625 5.74112 4.42006 5.08077 5.08041C3.74715 6.41404 2.99792 8.22282 2.99792 10.1089C2.99792 11.9949 3.74715 13.8037 5.08077 15.1373C6.4144 16.4709 8.22318 17.2202 10.1092 17.2202C11.9952 17.2202 13.804 16.4709 15.1377 15.1373Z" stroke="#151515" stroke-linecap="round" stroke-linejoin="round"/>
</svg>
