<svg width="20" height="16" viewBox="0 0 20 16" fill="none" xmlns="http://www.w3.org/2000/svg">
<path d="M17.4364 0.0654297H2.56641C1.90337 0.0654297 1.26748 0.328822 0.798639 0.797663C0.329798 1.2665 0.0664063 1.90239 0.0664062 2.56543V13.4354C0.0664062 14.0985 0.329798 14.7344 0.798639 15.2032C1.26748 15.672 1.90337 15.9354 2.56641 15.9354H17.4364C18.0994 15.9354 18.7353 15.672 19.2042 15.2032C19.673 14.7344 19.9364 14.0985 19.9364 13.4354V2.56543C19.9364 1.90239 19.673 1.2665 19.2042 0.797663C18.7353 0.328822 18.0994 0.0654297 17.4364 0.0654297ZM2.56641 1.06543H17.4364C17.8149 1.06434 18.1796 1.20744 18.4564 1.46564C18.7332 1.72384 18.9012 2.07775 18.9264 2.45543C16.4564 3.77543 13.9764 5.08543 11.4964 6.40543C11.1609 6.61569 10.8059 6.79317 10.4364 6.93543C10.1463 6.99268 9.84735 6.98751 9.55941 6.92027C9.27147 6.85302 9.00114 6.72524 8.76641 6.54543C7.34641 5.79543 5.92641 5.03543 4.51641 4.28543C3.37641 3.68543 2.21641 3.07543 1.07641 2.46543C1.0996 2.08615 1.26673 1.73003 1.54366 1.46983C1.82059 1.20962 2.18641 1.06498 2.56641 1.06543ZM18.9364 13.4354C18.9364 13.8333 18.7784 14.2148 18.4971 14.4961C18.2158 14.7774 17.8342 14.9354 17.4364 14.9354H2.56641C2.16858 14.9354 1.78705 14.7774 1.50575 14.4961C1.22444 14.2148 1.06641 13.8333 1.06641 13.4354V3.60043C3.42641 4.84043 5.77641 6.10043 8.13641 7.35043C8.55805 7.60894 9.01197 7.81068 9.48641 7.95043C10.1808 8.06333 10.8925 7.91743 11.4864 7.54043C12.9364 6.78043 14.3764 6.01043 15.8264 5.25043C16.8664 4.69043 17.8964 4.15043 18.9364 3.60043V13.4354Z" fill="white" fill-opacity="0.5"/>
</svg>
