<svg width="160" height="204" viewBox="0 0 160 204" fill="none" xmlns="http://www.w3.org/2000/svg">
<path opacity="0.3" d="M143.643 171.591L143.641 171.589C109.114 144.184 78.2695 114.991 47.553 79.399L47.197 78.9865L47.6384 78.6672C48.394 78.1205 49.1297 77.5856 49.8436 77.0666C51.549 75.8266 53.1298 74.6773 54.5592 73.6751L54.5607 73.674C57.0701 71.928 62.5256 68.3171 67.3474 65.1467C69.7597 63.5605 72.0154 62.0833 73.6681 61.0027C74.4944 60.4623 75.17 60.0211 75.639 59.7149L76.1807 59.3615L76.3222 59.2692L76.3584 59.2456L76.3675 59.2397L76.3698 59.2382L76.3704 59.2378C76.3705 59.2377 76.3706 59.2377 76.6436 59.6565L76.3706 59.2377L76.5976 59.0897L76.8455 59.1991L86.7177 63.5558L158.563 18.879C157.996 13.8153 156.891 9.60711 155.082 6.49893C153.281 3.403 150.788 1.40215 147.404 0.713934L75.37 45.5079C75.3265 45.5953 75.262 45.7185 75.1735 45.8724C74.9939 46.1847 74.7153 46.6233 74.3123 47.1453C73.506 48.1896 72.2033 49.5656 70.2033 50.9285L70.202 50.9294C69.371 51.4919 66.9122 53.0705 63.5745 55.2134C62.0482 56.1934 60.3379 57.2914 58.5155 58.4643C52.7014 62.2059 45.7335 66.7165 39.906 70.6122L39.652 70.7819L39.3851 70.6335C36.4818 69.0193 32.7772 69.2942 30.1776 71.6222L30.1773 71.6226C27.5944 73.9314 26.8956 77.5168 28.1302 80.5557L28.175 80.6659L28.1654 80.7845C28.0325 82.4154 26.9522 84.0382 25.0386 85.5144C23.118 86.996 20.3023 88.376 16.5597 89.5182C13.246 90.5318 9.08852 90.917 5.89963 91.2125C5.52586 91.2471 5.16539 91.2805 4.82116 91.3136C3.99502 91.3928 3.26442 91.4696 2.66077 91.5554C2.08658 91.637 1.6577 91.7229 1.37847 91.8158C1.45484 91.8659 1.55139 91.9229 1.67164 91.9867L1.67187 91.9869C11.2595 97.0789 22.249 93.9299 32.3703 88.5074L32.78 88.2879L33.0288 88.6806C56.7503 126.126 84.9762 159.647 118.729 197.283L118.736 197.29L118.742 197.297C118.903 197.492 119.201 197.799 119.472 198.07C119.605 198.203 119.727 198.322 119.816 198.408C119.86 198.452 119.896 198.486 119.921 198.51L119.949 198.538L119.955 198.543C126.677 204.72 137.12 204.895 144.052 198.677L144.052 198.677C151.434 192.069 152.059 180.715 145.436 173.343L145.433 173.34C145.159 173.029 144.713 172.593 144.324 172.224C144.132 172.042 143.958 171.881 143.832 171.764C143.769 171.706 143.718 171.659 143.683 171.627L143.643 171.591ZM38.7113 75.7063C40.819 76.9232 41.5317 79.6309 40.3118 81.7439C39.0997 83.8432 36.398 84.5779 34.2914 83.3617C32.1758 82.1403 31.4599 79.4335 32.6725 77.3333C33.8928 75.2195 36.5944 74.4842 38.7113 75.7063Z" stroke="#CEA561"/>
</svg>
