<svg width="89" height="131" viewBox="0 0 89 131" fill="none" xmlns="http://www.w3.org/2000/svg">
<path opacity="0.4" d="M29.1181 9.75463L29.2475 9.27167L29.7305 9.40108L82.8358 23.6306L83.3187 23.76L83.1893 24.243L82.9078 25.2936L82.79 25.7333L82.3412 25.6572C64.123 22.5653 46.3837 17.8423 29.1446 11.4031L28.719 11.2441L28.8366 10.8053L29.1181 9.75463ZM75.3154 49.7653L75.4054 49.4292L75.7519 49.3968L79.6032 49.0374L83.9087 32.9691L88.1761 17.0429L82.3931 15.4933L81.0073 20.6654L80.8779 21.1483L80.3949 21.0189L78.1429 20.4155L77.66 20.2861L77.7894 19.8031L79.1752 14.6311L77.8981 14.2889L76.5122 19.4609L76.3828 19.9439L75.8998 19.8145L73.6479 19.2111L73.1649 19.0816L73.2943 18.5987L74.6802 13.4266L73.3955 13.0824L72.0097 18.2545L71.8803 18.7374L71.3973 18.608L69.1472 18.0051L68.6642 17.8757L68.7936 17.3927L70.1795 12.2207L68.8934 11.8761L67.5076 17.0481L67.3782 17.5311L66.8952 17.4017L64.6484 16.7996L64.1654 16.6702L64.2948 16.1873L65.6807 11.0152L64.3946 10.6706L63.0088 15.8427L62.8794 16.3256L62.3964 16.1962L60.1463 15.5933L59.6633 15.4639L59.7927 14.9809L61.1786 9.80891L59.8995 9.46618L58.5137 14.6382L58.3843 15.1212L57.9013 14.9918L55.6512 14.3889L55.1683 14.2595L55.2977 13.7765L56.6835 8.60446L55.3975 8.25986L54.0116 13.4319L53.8822 13.9149L53.3992 13.7855L51.1487 13.1824L50.6657 13.053L50.7951 12.57L52.181 7.398L50.8987 7.05441L49.5128 12.2265L49.3834 12.7094L48.9005 12.58L46.6503 11.9771L46.1674 11.8477L46.2968 11.3647L47.6826 6.19268L46.4017 5.84945L45.0159 11.0215L44.8864 11.5045L44.4035 11.375L42.1478 10.7706L41.6648 10.6412L41.7942 10.1583L43.1801 4.98622L41.9029 4.644L40.5171 9.81605L40.3877 10.299L39.9047 10.1696L37.6527 9.56618L37.1697 9.43677L37.2991 8.95381L38.685 3.78177L37.4008 3.43768L36.015 8.60972L35.8856 9.09268L35.4026 8.96327L33.1544 8.36085L32.6714 8.23144L32.8008 7.74848L34.1867 2.57644L28.3999 1.0259L24.1325 16.9521L19.827 33.0205L22.9822 35.2572L23.266 35.4585L23.176 35.7946L23.1699 35.8173L23.1638 35.8402L23.1577 35.863L23.1516 35.8858L23.1454 35.9086L23.1393 35.9314L23.1332 35.9542L23.1271 35.9771L23.121 35.9999L23.1149 36.0227L23.1087 36.0456L23.1026 36.0684L23.0965 36.0913L23.0904 36.1142L23.0842 36.137L23.0781 36.1599L23.072 36.1828L23.0658 36.2056L23.0597 36.2285L23.0536 36.2514L23.0474 36.2743L23.0413 36.2972L23.0352 36.3201L23.029 36.343L23.0229 36.366L23.0167 36.3889L23.0106 36.4118L23.0045 36.4347L22.9983 36.4577L22.9922 36.4806L22.986 36.5036L22.9799 36.5265L22.9737 36.5495L22.9676 36.5724L22.9614 36.5954L22.9553 36.6184L22.9491 36.6413L22.9429 36.6643L22.9368 36.6873L22.9306 36.7103L22.9245 36.7333L22.9183 36.7563L22.9121 36.7793L22.906 36.8023L22.8998 36.8253L22.8936 36.8483L22.8875 36.8713L22.8813 36.8944L22.8751 36.9174L22.869 36.9404L22.8628 36.9635L22.8566 36.9865L22.8504 37.0096L22.8443 37.0326L22.8381 37.0557L22.8319 37.0787L22.8257 37.1018L22.8195 37.1249L22.8134 37.148L22.8072 37.171L22.801 37.1941L22.7948 37.2172L22.7886 37.2403L22.7824 37.2634L22.7762 37.2865L22.77 37.3096L22.7638 37.3327L22.7576 37.3559L22.7515 37.379L22.7453 37.4021L22.7391 37.4252L22.7329 37.4484L22.7267 37.4715L22.7205 37.4947L22.7143 37.5178L22.7081 37.5409L22.7018 37.5641L22.6956 37.5873L22.6894 37.6104L22.6832 37.6336L22.677 37.6568L22.6708 37.68L22.6646 37.7031L22.6584 37.7263L22.6522 37.7495L22.646 37.7727L22.6397 37.7959L22.6335 37.8191L22.6273 37.8423L22.6211 37.8655L22.6149 37.8887L22.6086 37.9119L22.6024 37.9352L22.5962 37.9584L22.59 37.9816L22.5837 38.0049L22.5775 38.0281L22.5713 38.0513L22.5651 38.0746L22.5588 38.0978L22.5526 38.1211L22.5464 38.1444L22.5401 38.1676L22.5339 38.1909L22.5277 38.2142L22.5214 38.2374L22.5152 38.2607L22.509 38.284L22.5027 38.3073L22.4965 38.3306L22.4902 38.3539L22.484 38.3772L22.4777 38.4005L22.4715 38.4238L22.4653 38.4471L22.459 38.4704L22.4528 38.4937L22.4465 38.517L22.4403 38.5404L22.434 38.5637L22.4278 38.587L22.4215 38.6103L22.4153 38.6337L22.409 38.657L22.4027 38.6804L22.3965 38.7037L22.3902 38.7271L22.384 38.7504L22.3777 38.7738L22.3714 38.7972L22.3652 38.8205L22.3589 38.8439L22.3527 38.8673L22.3464 38.8907L22.3401 38.914L22.3339 38.9374L22.3276 38.9608L22.3213 38.9842L22.3151 39.0076L22.3088 39.031L22.3025 39.0544L22.2962 39.0778L22.29 39.1012L22.2837 39.1247L22.2774 39.1481L22.2711 39.1715L22.2649 39.1949L22.2586 39.2183L22.2523 39.2418L22.246 39.2652L22.2398 39.2887L22.2335 39.3121L22.2272 39.3355L22.2209 39.359L22.2146 39.3824L22.2083 39.4059L22.2021 39.4293L22.1958 39.4528L22.1895 39.4763L22.1832 39.4997L22.1769 39.5232L22.1706 39.5467L22.1643 39.5702L22.158 39.5937L22.1517 39.6171L22.1454 39.6406L22.1392 39.6641L22.1329 39.6876L22.1266 39.7111L22.1203 39.7346L22.114 39.7581L22.1077 39.7816L22.1014 39.8051L22.0951 39.8286L22.0888 39.8521L22.0825 39.8757L22.0762 39.8992L22.0699 39.9227L22.0636 39.9462L22.0573 39.9698L22.0509 39.9933L22.0446 40.0168L22.0383 40.0404L22.032 40.0639L22.0257 40.0875L22.0194 40.111L22.0131 40.1346L22.0068 40.1581L22.0005 40.1817L21.9942 40.2052L21.9878 40.2288L21.9815 40.2524L21.9752 40.2759L21.9689 40.2995L21.9626 40.3231L21.9563 40.3466L21.95 40.3702L21.9436 40.3938L21.9373 40.4174L21.931 40.441L21.9247 40.4646L21.9183 40.4882L21.912 40.5118L21.9057 40.5354L21.8994 40.559L21.8931 40.5826L21.8867 40.6062L21.8804 40.6298L21.8741 40.6534L21.8677 40.677L21.8614 40.7006L21.8551 40.7242L21.8488 40.7479L21.8424 40.7715L21.8361 40.7951L21.8298 40.8187L21.8234 40.8424L21.8171 40.866L21.8108 40.8896L21.8044 40.9133L21.7981 40.9369L21.7918 40.9606L21.7854 40.9842L21.7791 41.0079L21.7728 41.0315L21.7664 41.0552L21.7601 41.0788L21.7537 41.1025L21.7474 41.1262L21.7411 41.1498L21.7347 41.1735L21.7284 41.1972L21.722 41.2208L21.7157 41.2445L21.7093 41.2682L21.703 41.2918L21.6967 41.3155L21.6903 41.3392L21.684 41.3629L21.6776 41.3866L21.6713 41.4103L21.6649 41.434L21.6586 41.4577L21.6522 41.4814L21.6459 41.505L21.6395 41.5287L21.6332 41.5525L21.6268 41.5762L21.6205 41.5999L21.6141 41.6236L21.6078 41.6473L21.6014 41.671L21.5951 41.6947L21.5887 41.7184L21.5823 41.7421L21.576 41.7659L21.5696 41.7896L21.5633 41.8133L21.5569 41.837L21.5506 41.8608L21.5442 41.8845L21.5378 41.9082L21.5315 41.932L21.5251 41.9557L21.5188 41.9794L21.5124 42.0032L21.506 42.0269L21.4997 42.0507L21.4933 42.0744L21.4869 42.0982L21.4806 42.1219L21.4742 42.1457L21.4679 42.1694L21.4615 42.1932L21.4551 42.2169L21.4488 42.2407L21.4424 42.2645L21.436 42.2882L21.4297 42.312L21.4233 42.3358L21.4169 42.3595L21.4106 42.3833L21.4042 42.4071L21.3978 42.4308L21.3914 42.4546L21.3851 42.4784L21.3787 42.5022L21.3723 42.5259L21.366 42.5497L21.3596 42.5735L21.3532 42.5973L21.3468 42.6211L21.3405 42.6449L21.3341 42.6687L21.3277 42.6925L21.3213 42.7162L21.315 42.74L21.3086 42.7638L21.3022 42.7876L21.2958 42.8114L21.2895 42.8352L21.2831 42.859L21.2767 42.8828L21.2703 42.9066L21.2639 42.9304L21.2576 42.9543L21.2512 42.9781L21.2448 43.0019L21.2384 43.0257L21.232 43.0495L21.2257 43.0733L21.2193 43.0971L21.2129 43.1209L21.2065 43.1448L21.2001 43.1686L21.1937 43.1924L21.1874 43.2162L21.181 43.24L21.1746 43.2639L21.1682 43.2877L21.1618 43.3115L21.1554 43.3354L21.1491 43.3592L21.1427 43.383L21.1363 43.4068L21.1299 43.4307L21.1235 43.4545L21.1171 43.4784L21.1107 43.5022L21.1044 43.526L21.098 43.5499L21.0916 43.5737L21.0852 43.5975L21.0788 43.6214L21.0724 43.6452L21.066 43.6691L21.0596 43.6929L21.0532 43.7168L21.0469 43.7406L21.0405 43.7645L21.0341 43.7883L21.0277 43.8122L21.0213 43.836L21.0149 43.8599L21.0085 43.8837L21.0021 43.9076L20.9957 43.9314L20.9893 43.9553L20.9829 43.9791L20.9766 44.003L20.9702 44.0268L20.9638 44.0507L20.9574 44.0746L20.951 44.0984L20.9446 44.1223L20.9382 44.1462L20.9318 44.17L20.9254 44.1939L20.919 44.2177L20.9126 44.2416L20.9062 44.2655L20.8998 44.2893L20.8934 44.3132L20.887 44.3371L20.8806 44.3609L20.8742 44.3848L20.8678 44.4087L20.8615 44.4326L20.8551 44.4564L20.8487 44.4803L20.8423 44.5042L20.8359 44.528L20.8295 44.5519L20.8231 44.5758L20.8167 44.5997L20.8103 44.6235L20.8039 44.6474L20.7975 44.6713L20.7911 44.6952L20.7847 44.719L20.7783 44.7429L20.7719 44.7668L20.7655 44.7907L20.7591 44.8146L20.7527 44.8384L20.7463 44.8623L20.7399 44.8862L20.7335 44.9101L20.7271 44.934L20.7207 44.9578L20.7143 44.9817L20.7079 45.0056L20.7015 45.0295L20.6951 45.0534L20.6887 45.0773L20.6823 45.1011L20.6759 45.125L20.6695 45.1489L20.6631 45.1728L20.6567 45.1967L20.6503 45.2206L20.6439 45.2444L20.6375 45.2683L20.6311 45.2922L20.6247 45.3161L20.6183 45.34L20.6119 45.3639L20.6055 45.3878L20.5991 45.4117L20.5927 45.4355L20.5863 45.4594L20.5799 45.4833L20.5735 45.5072L20.5671 45.5311L20.5607 45.555L20.5543 45.5789L20.5479 45.6027L20.5415 45.6266L20.5351 45.6505L20.5287 45.6744L20.5223 45.6983L20.5159 45.7222L20.5095 45.7461L20.5031 45.7699L20.4967 45.7938L20.4903 45.8177L20.4839 45.8416L20.4775 45.8655L20.4711 45.8894L20.4647 45.9133L20.4583 45.9372L20.4519 45.961L20.4455 45.9849L20.4391 46.0088L20.4327 46.0327L20.4263 46.0566L20.4199 46.0805L20.4135 46.1044L20.4071 46.1282L20.4007 46.1521L20.3943 46.176L20.3879 46.1999L20.3815 46.2238L20.3751 46.2476L20.3687 46.2715L20.3623 46.2954L20.3559 46.3193L20.3495 46.3432L20.3431 46.3671L20.3367 46.3909L20.3303 46.4148L20.3239 46.4387L20.3175 46.4626L20.3111 46.4865L20.3047 46.5103L20.2983 46.5342L20.2919 46.5581L20.2855 46.582L20.2791 46.6058L20.2727 46.6297L20.2663 46.6536L20.2599 46.6775L20.2535 46.7013L20.2471 46.7252L20.2407 46.7491L20.2343 46.773L20.2279 46.7968L20.2215 46.8207L20.2152 46.8446L20.2088 46.8684L20.2024 46.8923L20.196 46.9162L20.1896 46.9401L20.1832 46.9639L20.1768 46.9878L20.1704 47.0117L20.164 47.0355L20.1576 47.0594L20.1512 47.0833L20.1448 47.1071L20.1384 47.131L20.132 47.1548L20.1256 47.1787L20.1192 47.2026L20.1128 47.2264L20.1064 47.2503L20.1001 47.2741L20.0937 47.298L20.0873 47.3219L20.0809 47.3457L20.0745 47.3696L20.0681 47.3934L20.0617 47.4173L20.0553 47.4411L20.0489 47.465L20.0425 47.4888L20.0361 47.5127L20.0297 47.5365L20.0234 47.5604L20.017 47.5842L20.0106 47.608L20.0042 47.6319L19.9978 47.6557L19.9914 47.6796L19.985 47.7034L19.9786 47.7273L19.9723 47.7511L19.9659 47.7749L19.9595 47.7988L19.9531 47.8226L19.9467 47.8464L19.9403 47.8703L19.8109 48.3532L19.3279 48.2238L16.9135 47.5769L10.086 45.7474L2.50586 74.0369L8.85043 75.7369L13.8048 57.2471L13.9342 56.7641L14.4171 56.8935L16.8316 57.5405L17.3145 57.6699L17.1851 58.1528L17.1775 58.1812L17.1699 58.2096L17.1623 58.238L17.1547 58.2663L17.1471 58.2947L17.1395 58.323L17.1319 58.3514L17.1243 58.3797L17.1167 58.408L17.1092 58.4363L17.1016 58.4645L17.094 58.4928L17.0864 58.5211L17.0789 58.5493L17.0713 58.5775L17.0638 58.6057L17.0562 58.6339L17.0486 58.6621L17.0411 58.6903L17.0335 58.7185L17.026 58.7466L17.0185 58.7748L17.0109 58.8029L17.0034 58.831L16.9959 58.8591L16.9883 58.8872L16.9808 58.9153L16.9733 58.9434L16.9658 58.9715L16.9583 58.9995L16.9507 59.0275L16.9432 59.0555L16.9357 59.0836L16.9282 59.1116L16.9207 59.1395L16.9132 59.1675L16.9057 59.1955L16.8983 59.2234L16.8908 59.2513L16.8833 59.2793L16.8758 59.3072L16.8683 59.3351L16.8609 59.3629L16.8534 59.3908L16.8459 59.4187L16.8385 59.4465L16.831 59.4743L16.8236 59.5021L16.8161 59.53L16.8087 59.5577L16.8012 59.5855L16.7938 59.6133L16.7864 59.641L16.7789 59.6688L16.7715 59.6965L16.7641 59.7242L16.7566 59.7519L16.7492 59.7796L16.7418 59.8073L16.7344 59.8349L16.727 59.8626L16.7196 59.8902L16.7122 59.9178L16.7048 59.9454L16.6974 59.973L16.69 60.0006L16.6826 60.0282L16.6752 60.0557L16.6679 60.0833L16.6605 60.1108L16.6531 60.1383L16.6457 60.1658L16.6384 60.1933L16.631 60.2207L16.6237 60.2482L16.6163 60.2756L16.609 60.3031L16.6016 60.3305L16.5943 60.3579L16.5869 60.3853L16.5796 60.4126L16.5723 60.44L16.5649 60.4673L16.5576 60.4947L16.5503 60.522L16.543 60.5493L16.5357 60.5766L16.5284 60.6039L16.5211 60.6311L16.5138 60.6584L16.5065 60.6856L16.4992 60.7128L16.4919 60.74L16.4846 60.7672L16.4773 60.7944L16.47 60.8215L16.4628 60.8487L16.4555 60.8758L16.4482 60.903L16.441 60.9301L16.4337 60.9571L16.4264 60.9842L16.4192 61.0113L16.4119 61.0383L16.4047 61.0654L16.3975 61.0924L16.3902 61.1194L16.383 61.1464L16.3758 61.1733L16.3685 61.2003L16.3613 61.2272L16.3541 61.2542L16.3469 61.2811L16.3397 61.308L16.3325 61.3349L16.3253 61.3617L16.3181 61.3886L16.3109 61.4154L16.3037 61.4423L16.2965 61.4691L16.2893 61.4959L16.2822 61.5227L16.275 61.5494L16.2678 61.5762L16.2607 61.6029L16.2535 61.6296L16.2464 61.6563L16.2392 61.683L16.2321 61.7097L16.2249 61.7364L16.2178 61.763L16.2106 61.7896L16.2035 61.8162L16.1964 61.8428L16.1893 61.8694L16.1821 61.896L16.175 61.9225L16.1679 61.9491L16.1608 61.9756L16.1537 62.0021L16.1466 62.0286L16.1395 62.0551L16.1324 62.0815L16.1253 62.108L16.1183 62.1344L16.1112 62.1608L16.1041 62.1872L16.097 62.2136L16.09 62.24L16.0829 62.2663L16.0759 62.2926L16.0688 62.319L16.0618 62.3453L16.0547 62.3715L16.0477 62.3978L16.0406 62.4241L16.0336 62.4503L16.0266 62.4765L16.0196 62.5027L16.0125 62.5289L16.0055 62.5551L15.9985 62.5813L15.9915 62.6074L15.9845 62.6335L15.9775 62.6596L15.9705 62.6857L15.9635 62.7118L15.9566 62.7379L15.9496 62.7639L15.9426 62.7899L15.9356 62.8159L15.9287 62.8419L15.9217 62.8679L15.9148 62.8939L15.9078 62.9198L15.9009 62.9458L15.8939 62.9717L15.887 62.9976L15.88 63.0234L15.8731 63.0493L15.8662 63.0751L15.8593 63.101L15.8523 63.1268L15.8454 63.1526L15.8385 63.1784L15.8316 63.2041L15.8247 63.2299L15.8178 63.2556L15.8109 63.2813L15.8041 63.307L15.7972 63.3327L15.7903 63.3583L15.7834 63.384L15.7766 63.4096L15.7697 63.4352L15.7628 63.4608L15.756 63.4864L15.7491 63.512L15.7423 63.5375L15.7355 63.563L15.7286 63.5885L15.7218 63.614L15.715 63.6395L15.7081 63.6649L15.7013 63.6904L15.6945 63.7158L15.6877 63.7412L15.6809 63.7666L15.6741 63.792L15.6673 63.8173L15.6605 63.8426L15.6537 63.868L15.647 63.8933L15.6402 63.9185L15.6334 63.9438L15.6267 63.969L15.6199 63.9943L15.6131 64.0195L15.6064 64.0447L15.5997 64.0699L15.5929 64.095L15.5862 64.1202L15.5794 64.1453L15.5727 64.1704L15.566 64.1955L15.5593 64.2205L15.5526 64.2456L15.5459 64.2706L15.5392 64.2956L15.5325 64.3206L15.5258 64.3456L15.5191 64.3706L15.5124 64.3955L15.5057 64.4204L15.499 64.4453L15.4924 64.4702L15.4857 64.4951L15.4791 64.5199L15.4724 64.5448L15.4657 64.5696L15.4591 64.5944L15.4525 64.6192L15.4458 64.6439L15.4392 64.6687L15.4326 64.6934L15.426 64.7181L15.4193 64.7428L15.4127 64.7674L15.4061 64.7921L15.3995 64.8167L15.3929 64.8413L15.3863 64.8659L15.3798 64.8905L15.3732 64.9151L15.3666 64.9396L15.36 64.9641L15.3535 64.9886L15.3469 65.0131L15.3404 65.0376L15.3338 65.062L15.3273 65.0864L15.3207 65.1108L15.3142 65.1352L15.3077 65.1596L15.3011 65.1839L15.2946 65.2083L15.2881 65.2326L15.2816 65.2569L15.2751 65.2811L15.2686 65.3054L15.2621 65.3296L15.2556 65.3538L15.2491 65.378L15.2427 65.4022L15.2362 65.4264L15.2297 65.4505L15.2232 65.4746L15.2168 65.4987L15.2103 65.5228L15.2039 65.5469L15.1974 65.5709L15.191 65.5949L15.1846 65.6189L15.1782 65.6429L15.1717 65.6669L15.1653 65.6908L15.1589 65.7147L15.1525 65.7386L15.1461 65.7625L15.1397 65.7864L15.1333 65.8102L15.1269 65.8341L15.1206 65.8579L15.1142 65.8817L15.1078 65.9054L15.1015 65.9292L15.0951 65.9529L15.0887 65.9766L15.0824 66.0003L15.0761 66.024L15.0697 66.0476L15.0634 66.0712L15.0571 66.0948L15.0507 66.1184L15.0444 66.142L15.0381 66.1655L15.0318 66.1891L15.0255 66.2126L15.0192 66.236L15.0129 66.2595L15.0067 66.283L15.0004 66.3064L14.9941 66.3298L14.9878 66.3532L14.9816 66.3765L14.9753 66.3999L14.9691 66.4232L14.9628 66.4465L14.9566 66.4698L14.9504 66.4931L14.9441 66.5163L14.9379 66.5395L14.9317 66.5627L14.9255 66.5859L14.9193 66.609L14.9131 66.6322L14.9069 66.6553L14.9007 66.6784L14.8945 66.7015L14.8883 66.7245L14.8822 66.7476L14.876 66.7706L14.8698 66.7936L14.8637 66.8166L14.8575 66.8395L14.8514 66.8624L14.8452 66.8853L14.8391 66.9082L14.833 66.9311L14.8269 66.9539L14.8207 66.9768L14.8146 66.9996L14.8085 67.0223L14.8024 67.0451L14.7963 67.0678L14.7903 67.0906L14.7842 67.1133L14.7781 67.1359L14.772 67.1586L14.766 67.1812L14.7599 67.2038L14.7538 67.2264L14.7478 67.249L14.7418 67.2716L14.7357 67.2941L14.7297 67.3166L14.7237 67.3391L14.7177 67.3615L14.7116 67.384L14.7056 67.4064L14.6996 67.4288L14.6936 67.4512L14.6876 67.4735L14.6817 67.4959L14.6757 67.5182L14.6697 67.5404L14.6637 67.5627L14.6578 67.585L14.6518 67.6072L14.6459 67.6294L14.6399 67.6516L14.634 67.6737L14.6281 67.6959L14.6221 67.718L14.6162 67.7401L14.6103 67.7621L14.6044 67.7842L14.5985 67.8062L14.5926 67.8282L14.5867 67.8502L14.5808 67.8721L14.575 67.8941L14.5691 67.916L14.5632 67.9379L14.5574 67.9597L14.5515 67.9816L14.5457 68.0034L14.5398 68.0252L14.534 68.047L14.5281 68.0688L14.5223 68.0905L14.5165 68.1122L14.5107 68.1339L14.5049 68.1556L14.4991 68.1772L14.4933 68.1988L14.4875 68.2204L14.4817 68.242L14.476 68.2636L14.4702 68.2851L14.4644 68.3066L14.4587 68.3281L14.4529 68.3496L14.4472 68.371L14.4414 68.3924L14.4357 68.4138L14.43 68.4352L14.4242 68.4565L14.4185 68.4778L14.4128 68.4992L14.4071 68.5204L14.4014 68.5417L14.3957 68.5629L14.3901 68.5841L14.3844 68.6053L14.3787 68.6265L14.373 68.6476L14.3674 68.6687L14.3617 68.6898L14.3561 68.7109L14.3504 68.732L14.3448 68.753L14.3392 68.774L14.3336 68.795L14.328 68.8159L14.3223 68.8368L14.3167 68.8578L14.3111 68.8786L14.3056 68.8995L14.3 68.9203L14.2944 68.9411L14.2888 68.9619L14.2833 68.9827L14.2777 69.0034L14.2722 69.0242L14.2666 69.0449L14.2611 69.0655L14.2555 69.0862L14.25 69.1068L14.2445 69.1274L14.239 69.148L14.2335 69.1685L14.228 69.189L14.2225 69.2096L14.217 69.23L14.2115 69.2505L14.206 69.2709L14.2006 69.2913L14.1951 69.3117L14.1896 69.3321L14.1842 69.3524L14.1788 69.3727L14.1733 69.393L14.1679 69.4133L14.1625 69.4335L14.1571 69.4537L14.1516 69.4739L14.1462 69.4941L14.1408 69.5142L14.1355 69.5343L14.1301 69.5544L14.1247 69.5745L14.1193 69.5945L14.114 69.6146L14.1086 69.6345L14.1032 69.6545L14.0979 69.6745L14.0926 69.6944L14.0872 69.7143L14.0819 69.7342L14.0766 69.754L14.0713 69.7738L14.066 69.7936L14.0607 69.8134L14.0554 69.8331L14.0501 69.8529L14.0448 69.8726L14.0396 69.8922L14.0343 69.9119L14.029 69.9315L14.0238 69.9511L14.0185 69.9707L14.0133 69.9902L14.0081 70.0097L14.0028 70.0292L13.9976 70.0487L13.9924 70.0682L13.9872 70.0876L13.982 70.107L13.9768 70.1264L13.9716 70.1457L13.9665 70.165L13.9613 70.1843L13.9561 70.2036L13.951 70.2228L13.9458 70.2421L13.9407 70.2613L13.9355 70.2804L13.9304 70.2996L13.9253 70.3187L13.9202 70.3378L13.9151 70.3568L13.91 70.3759L13.9049 70.3949L13.8998 70.4139L13.8947 70.4329L13.8896 70.4518L13.8845 70.4707L13.8795 70.4896L13.8744 70.5085L13.8694 70.5273L13.8643 70.5461C11.0906 80.8979 7.78528 102.216 5.17073 120.979C3.86444 130.354 2.73202 139.08 1.92615 145.462C1.52323 148.653 1.20196 151.258 0.981437 153.065C0.871176 153.969 0.786099 154.673 0.728595 155.151L0.66332 155.696L0.655713 155.759C0.665535 155.782 0.677778 155.81 0.692778 155.841C0.753507 155.969 0.859732 156.167 1.03429 156.423C1.38312 156.934 2.00728 157.678 3.09193 158.554C5.26281 160.306 9.28003 162.582 16.6198 164.549C23.9569 166.515 28.5754 166.552 31.3332 166.121C32.7111 165.905 33.625 165.573 34.1835 165.305C34.463 165.171 34.6544 165.052 34.7712 164.972C34.8 164.952 34.8242 164.935 34.8442 164.92L34.8694 164.861L35.085 164.357C35.2742 163.914 35.5525 163.262 35.9087 162.424C36.6211 160.749 37.6451 158.332 38.8913 155.367C41.3838 149.436 44.765 141.313 48.32 132.541C55.4354 114.984 63.23 94.8686 66.0037 84.5168L66.016 84.4709L66.0284 84.4248L66.0407 84.3786L66.0532 84.3322L66.0656 84.2857L66.0781 84.239L66.0907 84.1922L66.1033 84.1452L66.1159 84.0981L66.1286 84.0508L66.1413 84.0034L66.154 83.9558L66.1668 83.9081L66.1797 83.8602L66.1925 83.8121L66.2054 83.7639L66.2184 83.7156L66.2314 83.6671L66.2444 83.6185L66.2575 83.5697L66.2706 83.5208L66.2837 83.4717L66.2969 83.4225L66.3102 83.3731L66.3234 83.3236L66.3367 83.274L66.3501 83.2242L66.3634 83.1742L66.3769 83.1242L66.3903 83.0739L66.4038 83.0236L66.4174 82.973L66.4309 82.9224L66.4445 82.8716L66.4582 82.8206L66.4719 82.7696L66.4856 82.7183L66.4994 82.667L66.5132 82.6155L66.527 82.5638L66.5409 82.5121L66.5548 82.4601L66.5687 82.4081L66.5827 82.3559L66.5967 82.3036L66.6108 82.2511L66.6249 82.1985L66.639 82.1458L66.6532 82.0929L66.6674 82.0399L66.6816 81.9867L66.6959 81.9334L66.7102 81.88L66.7246 81.8265L66.739 81.7728L66.7534 81.719L66.7678 81.665L66.7823 81.611L66.7969 81.5567L66.8114 81.5024L66.826 81.4479L66.8406 81.3933L66.8553 81.3386L66.87 81.2837L66.8847 81.2287L66.8995 81.1736L66.9143 81.1184L66.9292 81.063L66.944 81.0075L66.9589 80.9518L66.9739 80.8961L66.9889 80.8402L67.0039 80.7842L67.0189 80.7281L67.034 80.6718L67.0491 80.6154L67.0642 80.5589L67.0794 80.5023L67.0946 80.4455L67.1099 80.3886L67.1251 80.3316L67.1404 80.2745L67.1558 80.2172L67.1711 80.1599L67.1866 80.1024L67.202 80.0448L67.2175 79.987L67.233 79.9292L67.2485 79.8712L67.2641 79.8131L67.2797 79.7549L67.2953 79.6966L67.3109 79.6381L67.3266 79.5796L67.3424 79.5209L67.3581 79.4621L67.3739 79.4032L67.3897 79.3441L67.4056 79.285L67.4214 79.2257L67.4374 79.1664L67.4533 79.1069L67.4693 79.0473L67.4853 78.9876L67.5013 78.9277L67.5174 78.8678L67.5335 78.8077L67.5496 78.7476L67.5657 78.6873L67.5819 78.6269L67.5981 78.5664L67.6144 78.5058L67.6306 78.4451L67.6469 78.3842L67.6633 78.3233L67.6796 78.2623L67.696 78.2011L67.7124 78.1398L67.7289 78.0785L67.7453 78.017L67.7618 77.9554L67.7784 77.8937L67.7949 77.8319L67.8115 77.77L67.8281 77.708L67.8448 77.6459L67.8614 77.5837L67.8781 77.5214L67.8949 77.459L67.9116 77.3964L67.9284 77.3338L67.9452 77.2711L67.962 77.2082L67.9789 77.1453L67.9958 77.0823L68.0127 77.0191L68.0296 76.9559L68.0466 76.8926L68.0636 76.8291L68.0806 76.7656L68.0977 76.702L68.1148 76.6382L68.1319 76.5744L68.149 76.5105L68.1661 76.4465L68.1833 76.3824L68.2005 76.3181L68.2178 76.2538L68.235 76.1894L68.2523 76.1249L68.2696 76.0603L68.2869 75.9957L68.3043 75.9309L68.3217 75.866L68.3391 75.801L68.3565 75.736L68.374 75.6708L68.3915 75.6056L68.409 75.5402L68.4265 75.4748L68.4441 75.4093L68.4616 75.3437L68.4792 75.278L68.4969 75.2122L68.5145 75.1464L68.5322 75.0804L68.5499 75.0143L68.5676 74.9482L68.5854 74.882L68.6031 74.8157L68.6209 74.7493L68.6387 74.6828L68.6566 74.6162L68.6744 74.5496L68.6923 74.4828L68.7102 74.416L68.7281 74.3491L68.7461 74.2821L68.7641 74.215L68.7821 74.1479L68.8001 74.0806L68.8181 74.0133L68.8362 73.9459L68.8543 73.8784L68.8724 73.8109L68.8905 73.7432L68.9086 73.6755L68.9268 73.6077L68.945 73.5398L68.9632 73.4718L68.9814 73.4038L68.9997 73.3357L69.018 73.2675L69.0362 73.1992L69.0546 73.1309L69.0729 73.0624L69.0913 72.9939L69.1096 72.9254L69.128 72.8567L69.1464 72.788L69.1649 72.7192L69.1833 72.6503L69.2018 72.5814L69.2203 72.5123L69.2388 72.4432L69.2573 72.3741L69.2759 72.3048L69.2945 72.2355L69.3131 72.1662L69.3317 72.0967L69.3503 72.0272L69.3689 71.9576L69.3876 71.8879L69.4063 71.8182L69.425 71.7484L69.4437 71.6785L69.4625 71.6086L69.4812 71.5386L69.5 71.4685L69.5188 71.3984L69.5376 71.3282L69.5564 71.2579L69.5753 71.1876L69.5941 71.1172L69.613 71.0467L69.6319 70.9762L69.6508 70.9056L69.6697 70.835L69.6887 70.7643L69.7077 70.6935L69.7266 70.6226L69.7456 70.5517L69.7647 70.4808L69.7837 70.4097L69.8027 70.3387L69.8218 70.2675L69.8409 70.1963L69.86 70.125L69.8791 70.0537L69.8982 69.9823L69.9173 69.9109L69.9365 69.8394L69.9557 69.7678L69.9749 69.6962L69.9941 69.6246L70.0133 69.5528L70.0325 69.4811L70.0518 69.4092L70.071 69.3373L70.0903 69.2654L70.1096 69.1934L70.1289 69.1213L70.1482 69.0492L70.1676 68.9771L70.1869 68.9049L70.2063 68.8326L70.2257 68.7603L70.245 68.6879L70.2644 68.6155L70.2839 68.543L70.3033 68.4705L70.3227 68.398L70.3422 68.3253L70.3617 68.2527L70.3812 68.18L70.4006 68.1072L70.4202 68.0344L70.4397 67.9615L70.4592 67.8886L70.4788 67.8157L70.4983 67.7427L70.5179 67.6697L70.5375 67.5966L70.5571 67.5235L70.5767 67.4503L70.5963 67.3771L70.6159 67.3038L70.6356 67.2305L70.6552 67.1571L70.6749 67.0838L70.6946 67.0103L70.7142 66.9368L70.7339 66.8633L70.7537 66.7898L70.7734 66.7162L70.7931 66.6425L70.8128 66.5689L70.8326 66.4952L70.8524 66.4214L70.8721 66.3476L70.8919 66.2738L70.9117 66.1999L70.9315 66.126L70.9513 66.0521L70.9711 65.9781L70.991 65.9041L71.0108 65.83L71.0307 65.756L71.0505 65.6818L71.0704 65.6077L71.0903 65.5335L71.1102 65.4593L71.1301 65.385L71.15 65.3107L71.1699 65.2364L71.1898 65.1621L71.2097 65.0877L71.2297 65.0133L71.2496 64.9388L71.2696 64.8644L71.2895 64.7899L71.3095 64.7153L71.3295 64.6408L71.3495 64.5662L71.3695 64.4916L71.3895 64.4169L71.4095 64.3423L71.4295 64.2676L71.4495 64.1928L71.4695 64.1181L71.4896 64.0433L71.5096 63.9685L71.5297 63.8937L71.5497 63.8188L71.5698 63.744L71.5898 63.669L71.6099 63.5941L71.63 63.5192L71.6501 63.4442L71.6702 63.3692L71.6903 63.2942L71.7104 63.2192L71.7305 63.1441L71.7506 63.069L71.7707 62.9939L71.7909 62.9188L71.811 62.8437L71.8311 62.7685L71.8513 62.6934L71.8714 62.6182L71.8916 62.543L71.9117 62.4677L71.9319 62.3925L71.9521 62.3172L71.9722 62.242L71.9924 62.1667L72.0126 62.0914L72.0328 62.0161L72.053 61.9407L72.0731 61.8654L72.0933 61.79L72.1135 61.7146L72.1337 61.6392L72.1539 61.5638L72.1741 61.4884L72.1944 61.413L72.2146 61.3376L72.2348 61.2621L72.255 61.1867L72.2752 61.1112L72.2954 61.0357L72.3157 60.9602L72.3359 60.8847L72.3561 60.8092L72.3764 60.7337L72.3966 60.6582L72.4168 60.5827L72.4371 60.5072L72.4573 60.4316L72.4776 60.3561L72.4978 60.2805L72.518 60.205L72.5383 60.1294L72.5585 60.0538L72.5788 59.9783L72.599 59.9027L72.6193 59.8271L72.6395 59.7516L72.6598 59.676L72.68 59.6004L72.7003 59.5248L72.7205 59.4492L72.7408 59.3736L72.7611 59.2981L72.7813 59.2225L72.8016 59.1469L72.8218 59.0713L72.8421 58.9957L72.8623 58.9201L72.8826 58.8446L72.9028 58.769L72.9231 58.6934L72.9433 58.6178L72.9636 58.5423L72.9838 58.4667L73.0041 58.3912L73.0243 58.3156L73.0445 58.2401L73.0648 58.1645L73.085 58.089L73.1053 58.0134L73.1255 57.9379L73.1457 57.8624L73.166 57.7869L73.1862 57.7114L73.2064 57.6359L73.2266 57.5604L73.2469 57.485L73.2671 57.4095L73.2873 57.3341L73.3075 57.2586L73.3277 57.1832L73.3479 57.1078L73.3681 57.0324L73.3883 56.957L73.4085 56.8816L73.4287 56.8062L73.4489 56.7309L73.4691 56.6555L73.4893 56.5802L73.5095 56.5049L73.5297 56.4296L73.5498 56.3543L73.57 56.279L73.5902 56.2038L73.6103 56.1286L73.6305 56.0533L73.6506 55.9781L73.6708 55.903L73.6909 55.8278L73.711 55.7527L73.7312 55.6775L73.7513 55.6024L73.7714 55.5273L73.7915 55.4523L73.8116 55.3772L73.8317 55.3022L73.8518 55.2272L73.8719 55.1522L73.892 55.0773L73.9121 55.0023L73.9322 54.9274L73.9522 54.8525L73.9723 54.7777L73.9923 54.7028L74.0124 54.628L74.0324 54.5532L74.0525 54.4785L74.0725 54.4037L74.0925 54.329L74.1125 54.2543L74.1325 54.1797L74.1525 54.105L74.1725 54.0304L74.1925 53.9559L74.2125 53.8813L74.2324 53.8068L74.2524 53.7323L74.2723 53.6579L74.2923 53.5834L74.3122 53.509L74.3321 53.4347L74.3521 53.3604L74.372 53.2861L74.3919 53.2118L74.4118 53.1376L74.4316 53.0633L74.4515 52.9892L74.4714 52.915L74.4912 52.8409L74.5111 52.7669L74.5309 52.6929L74.5507 52.6189L74.5706 52.5449L74.5904 52.471L74.6102 52.3971L74.6299 52.3233L74.6497 52.2494L74.6695 52.1757L74.6892 52.1019L74.709 52.0282L74.7287 51.9546L74.7485 51.881L74.7682 51.8074L74.7879 51.7339L74.8076 51.6604L74.8272 51.5869L74.8469 51.5135L74.8666 51.4402L74.8862 51.3668L74.9059 51.2935L74.9255 51.2203L74.9451 51.1471L74.9647 51.074L74.9843 51.0009L75.0039 50.9278L75.0234 50.8548L75.043 50.7818L75.0625 50.7089L75.082 50.636L75.1016 50.5632L75.1211 50.4904L75.1405 50.4177L75.16 50.345L75.1795 50.2723L75.1989 50.1997L75.2184 50.1272L75.2378 50.0547L75.2572 49.9823L75.2766 49.9099L75.296 49.8375L75.3154 49.7653ZM34.9154 164.863L34.9146 164.864C34.9163 164.863 34.9169 164.862 34.9166 164.862L34.9154 164.863Z" stroke="#CEA561"/>
</svg>
