<svg width="173" height="207" viewBox="0 0 173 207" fill="none" xmlns="http://www.w3.org/2000/svg">
<path opacity="0.2" d="M58.6662 79.299L58.6623 79.3028C58.658 79.307 58.651 79.3137 58.6411 79.323C58.6383 79.3256 58.6352 79.3285 58.6319 79.3316C58.6022 79.3592 58.5534 79.4034 58.4821 79.4643C58.3395 79.5862 58.1074 79.7748 57.7603 80.0307C57.0659 80.5426 55.9129 81.3223 54.0975 82.375C41.8679 89.4261 27.7636 83.3464 20.0736 70.0269C14.1503 59.7676 13.8863 48.3443 19.6383 40.4342L19.9392 40.0204C19.9451 40.0146 19.9509 40.0087 19.9568 40.0029L19.9805 39.9792L20.0008 39.9525C20.5052 39.291 21.0649 38.663 21.6744 38.0475L21.6984 38.0232L21.7188 37.996C23.0676 36.2005 24.4745 33.5746 23.8038 30.9068C23.1236 28.2009 20.3853 25.7196 14.1035 24.0388L14.1031 24.0387C11.2979 23.2906 7.80749 23.0946 5.13932 22.9448C4.82709 22.9272 4.52613 22.9103 4.23883 22.8933C3.54736 22.8522 2.93719 22.8104 2.43305 22.7573C2.06475 22.7185 1.77096 22.6754 1.5513 22.6274C1.57536 22.6128 1.60096 22.5976 1.62817 22.5819C8.90896 18.3783 17.9658 19.6228 26.6708 22.6962C33.4031 25.073 39.825 28.5049 44.9366 31.2367C46.4284 32.0339 47.8086 32.7715 49.0524 33.4058C54.0478 35.9535 58.8133 39.4121 62.0319 44.5654C70.6529 58.9311 80.2049 72.411 90.251 85.4073L91.109 84.9115C84.9485 69.9176 78.1056 55.0814 69.9673 40.5244C62.715 27.3581 66.5953 11.1795 78.7187 4.18004C90.9442 -2.87834 105.046 3.20415 112.738 16.527C120.429 29.8472 118.652 45.1045 106.419 52.1579L106.419 52.158C104.612 53.2014 103.378 53.8037 102.604 54.1435C102.216 54.3133 101.944 54.4173 101.773 54.4777C101.687 54.508 101.627 54.5273 101.59 54.5386C101.571 54.5442 101.559 54.5478 101.552 54.5498L101.548 54.551C101.547 54.551 101.547 54.551 101.547 54.551C101.547 54.5511 101.547 54.5511 101.547 54.5511C101.547 54.5512 101.547 54.5512 101.546 54.5513C101.546 54.5513 101.546 54.5514 101.546 54.5514C97.2905 55.6276 94.8168 59.9502 96.0521 64.146L58.6662 79.299ZM58.6662 79.299C58.8272 79.1311 59.0215 78.9837 59.1727 78.869C59.2069 78.8431 59.2389 78.8188 59.2678 78.7964C59.2996 78.7637 59.3592 78.7053 59.4318 78.6561C62.4943 76.2138 66.9202 76.4164 69.6955 79.325C69.6955 79.3251 69.6956 79.3251 69.6956 79.3251L101.871 113.035L101.944 113.111L101.98 113.21C105.657 123.374 109.168 133.569 112.677 143.761C119.691 164.127 126.701 184.484 135.034 204.575C135.123 204.626 135.25 204.697 135.402 204.781C135.714 204.953 136.13 205.175 136.552 205.38C136.926 205.56 137.288 205.719 137.583 205.818L114.736 127.877L115.577 127.392L171.677 186.177C171.738 185.872 171.781 185.48 171.812 185.068C171.847 184.6 171.863 184.128 171.871 183.772C171.875 183.598 171.876 183.453 171.877 183.35C158.661 166.198 144.6 149.967 130.556 133.755C123.393 125.486 116.234 117.222 109.194 108.844L109.126 108.764L109.097 108.663L100.507 79.3559L100.468 79.221L100.471 79.2092L97.159 67.9288L97.1589 67.9284L96.0523 64.1468L58.6662 79.299ZM59.1293 47.4784C52.5977 36.1488 38.8402 31.7689 28.3707 37.8135C23.1341 40.8368 20.2755 45.583 19.5582 50.9885C18.8427 56.3803 20.2578 62.4062 23.5116 68.042C26.7642 73.6757 31.2756 77.9147 36.3034 79.9921C41.3439 82.0748 46.8845 81.974 52.1212 78.9506C59.4287 74.7316 62.8634 69.6953 63.595 64.2359C64.3223 58.8089 62.3612 53.0763 59.1293 47.4784ZM59.1293 47.4784C59.1293 47.4784 59.1292 47.4783 59.1292 47.4782L58.6962 47.7282L59.1293 47.4784ZM106.735 113.178L106.732 113.179C105.586 113.829 104.114 113.445 103.44 112.298L103.438 112.295C102.772 111.14 103.179 109.658 104.322 108.998C105.476 108.332 106.956 108.725 107.622 109.879C108.289 111.033 107.889 112.511 106.735 113.178ZM73.6756 39.0798L73.6755 39.0795C67.1442 27.7506 70.2257 13.6485 80.6884 7.60781C85.9283 4.58256 91.4703 4.47616 96.5125 6.55533C101.542 8.62921 106.055 12.8668 109.311 18.5059C112.563 24.1396 113.979 30.1661 113.263 35.5595C112.545 40.9667 109.686 45.7155 104.446 48.7409C97.1385 52.9599 91.0571 53.4178 85.9608 51.3233C80.8945 49.2411 76.9077 44.6779 73.6756 39.0798ZM1.24103 22.8612C1.24109 22.8612 1.24177 22.8603 1.24293 22.8585C1.24155 22.8603 1.24097 22.8612 1.24103 22.8612Z" stroke="#CEA561"/>
</svg>
