<svg width="343" height="282" viewBox="0 0 343 282" fill="none" xmlns="http://www.w3.org/2000/svg">
<path opacity="0.32" d="M232.162 105.531L232.162 105.53C233.673 97.0052 238.666 90.8426 245.604 87.2323C252.529 83.6285 261.372 82.5755 270.613 84.1982L270.613 84.1983C279.846 85.8341 287.799 89.8485 293.076 95.6036C298.362 101.369 300.947 108.868 299.439 117.395C296.441 134.446 278.906 145.534 260.374 142.262C251.178 140.639 243.055 137.493 237.761 131.701C232.445 125.883 230.058 117.482 232.162 105.531ZM211.208 269.113L211.208 269.113C204.568 274.68 196.78 276.195 189.144 274.503C181.521 272.813 174.07 267.934 168.038 260.749L168.037 260.749C162.01 253.56 158.499 245.373 158.157 237.572C157.815 229.757 160.658 222.35 167.292 216.787C176.59 208.988 185.058 206.854 192.752 208.549C200.414 210.237 207.198 215.701 213.2 222.855C225.302 237.277 224.47 257.988 211.208 269.113ZM4.66333 141.168C36.0518 142.503 67.1976 142.025 98.3007 141.548C115.235 141.288 132.157 141.028 149.099 141.062L149.408 141.062L149.546 141.34L164.772 172.069C164.784 172.085 164.795 172.103 164.806 172.122C164.824 172.154 164.837 172.186 164.847 172.217L172.456 187.565L172.456 187.566L174.991 192.669L174.543 192.892L174.991 192.669C177.748 198.221 175.358 204.862 169.713 207.391L169.713 207.391L169.712 207.391L169.712 207.391L169.711 207.391L169.701 207.396C169.69 207.401 169.671 207.411 169.644 207.424C169.591 207.451 169.507 207.495 169.389 207.561C169.154 207.693 168.787 207.912 168.273 208.253C167.244 208.936 165.632 210.107 163.318 212.05C147.581 225.27 148.944 247.594 163.307 264.712L163.307 264.712C177.667 281.835 199.432 287.056 215.18 273.842C230.749 260.775 232.182 236.619 218.462 219.577C198.178 194.731 180.975 168.603 165.031 141.95L164.57 141.179L165.468 141.193C197.133 141.682 228.87 143.506 260.834 148.611C269.605 149.838 277.937 147.774 285.418 144.605L285.419 144.605C287.261 143.827 289.344 142.993 291.596 142.091C299.385 138.973 309.204 135.042 318.13 129.783C329.646 122.999 339.519 114.091 341.639 102.041L341.639 102.04C341.687 101.772 341.705 101.574 341.703 101.434C341.672 101.451 341.636 101.472 341.595 101.498C341.285 101.693 340.859 102.056 340.322 102.574C339.79 103.086 339.174 103.725 338.485 104.451C338.198 104.754 337.898 105.072 337.588 105.402C334.94 108.214 331.496 111.871 328.081 114.267L328.081 114.268C320.401 119.641 315.195 120.307 311.673 118.601C308.185 116.912 306.596 113.007 305.861 109.853L305.853 109.817L305.85 109.78C305.75 108.555 305.557 107.322 305.296 106.137L305.289 106.108L305.286 106.078C305.256 105.77 305.238 105.501 305.227 105.282L305.101 105.282C301.65 91.4689 288.64 81.1152 271.685 78.1229L271.771 77.6305L271.684 78.1229C249.676 74.235 229.654 84.2194 226.087 104.459L226.087 104.459C225.558 107.445 225.349 109.451 225.273 110.704C225.235 111.33 225.229 111.768 225.233 112.045C225.235 112.183 225.239 112.282 225.243 112.343C225.244 112.357 225.244 112.369 225.245 112.379C225.246 112.392 225.247 112.402 225.247 112.409L225.248 112.422L225.248 112.422L225.248 112.422L225.248 112.422L225.248 112.423L225.248 112.423L225.25 112.435C225.27 112.703 225.262 112.994 225.254 113.245C225.251 113.35 225.248 113.448 225.248 113.535C225.256 113.624 225.26 113.725 225.248 113.841C225.118 119.39 220.865 124 215.154 124.363L157.164 128.048L156.855 128.067L156.7 127.799C148.108 112.971 139.818 98.0268 131.53 83.0847C116.412 55.8307 101.297 28.5831 84.3594 2.05359C84.3399 2.04656 84.3188 2.03893 84.296 2.03077C84.1548 1.98009 83.9522 1.90842 83.708 1.825C83.2189 1.65785 82.5666 1.4447 81.9079 1.25819C81.2436 1.07013 80.5949 0.915591 80.1055 0.857227C80.0241 0.847515 79.9509 0.84096 79.8857 0.837129L132.29 106.538L131.842 106.76L132.29 106.538L143.041 128.234L143.374 128.907L142.625 128.955L119.169 130.452L119.169 130.452L1.3718 137.911C1.40729 137.965 1.44907 138.024 1.49769 138.089C1.79181 138.483 2.2498 138.966 2.74535 139.446C3.23669 139.922 3.74835 140.38 4.13842 140.719C4.33316 140.888 4.49686 141.028 4.61167 141.124C4.63018 141.14 4.64745 141.154 4.66333 141.168ZM1.21451 137.606C1.21395 137.6 1.21313 137.597 1.21284 137.596C1.21256 137.596 1.2128 137.599 1.21451 137.606ZM79.5297 0.856439C79.5293 0.856882 79.533 0.855941 79.5395 0.852953C79.533 0.854807 79.53 0.856088 79.5297 0.856439ZM150.235 132.73C151.14 131.161 153.122 130.636 154.684 131.538C156.245 132.439 156.788 134.42 155.882 135.99C154.979 137.554 152.989 138.081 151.427 137.179C149.864 136.277 149.332 134.292 150.235 132.73Z" stroke="#CEA561"/>
</svg>
