<svg width="20" height="20" viewBox="0 0 20 20" fill="none" xmlns="http://www.w3.org/2000/svg">
<path d="M7.65363 4.2335C7.43917 3.51807 7.2917 2.78424 7.21313 2.0415C7.13463 1.301 6.48813 0.75 5.74363 0.75H2.28963C1.40113 0.75 0.717128 1.5175 0.795128 2.402C1.58263 11.3165 8.68363 18.417 17.5981 19.205C18.4831 19.283 19.2501 18.6015 19.2501 17.713V14.633C19.2501 13.509 18.6991 12.865 17.9586 12.7865C17.2159 12.7081 16.4821 12.5608 15.7666 12.3465C15.3424 12.2207 14.8921 12.2121 14.4634 12.3215C14.0347 12.4309 13.6436 12.6543 13.3316 12.968L11.8531 14.4465C9.18682 13.002 6.99813 10.8133 5.55363 8.147L7.03213 6.6685C7.3459 6.35653 7.56939 5.96547 7.67889 5.53677C7.7884 5.10807 7.77934 4.65773 7.65363 4.2335Z" stroke="white" stroke-opacity="0.5" stroke-width="0.5" stroke-linecap="round" stroke-linejoin="round"/>
</svg>
