<svg width="110" height="90" viewBox="0 0 110 90" fill="none" xmlns="http://www.w3.org/2000/svg">
<g clip-path="url(#clip0_0_302)">
<path d="M44.9931 50.1203C46.0349 38.4605 42.0684 37.395 46.9631 21.3909C44.4978 21.1706 42.1385 20.9592 42.1385 20.9592C42.1385 20.9592 39.7756 20.748 37.3103 20.5289C39.2496 38.4036 35.1992 37.4942 34.1591 49.1536C33.1178 60.8132 35.4375 64.6104 35.1008 68.3787C34.7644 72.1451 31.2777 74.4411 32.123 78.6103C33.3045 84.4295 39.582 84.99 41.7743 79.4718C43.346 75.5201 40.1724 72.7327 40.5106 68.964C40.8452 65.1975 43.9512 61.7809 44.9931 50.1203Z" fill="#151515" fill-opacity="0.7"/>
<path d="M62.1395 18.8283L61.1807 18.7434C61.0927 19.7353 60.5235 20.5629 59.7202 21.0285C59.2129 21.3208 58.6203 21.4642 57.9925 21.4083L26.4551 18.5916C25.4614 18.5028 24.6335 17.9339 24.1681 17.131C23.876 16.623 23.7317 16.0321 23.7882 15.4034L23.7886 15.4019L24.4182 8.33524C24.5075 7.3425 25.076 6.5148 25.8789 6.04941C26.3865 5.7576 26.9776 5.61374 27.6077 5.66948L59.1456 8.48595C60.139 8.5743 60.966 9.14258 61.4316 9.94593C61.7236 10.4528 61.8674 11.0458 61.8119 11.6764L61.1809 18.7427L62.1395 18.8283L63.0986 18.9137L63.7298 11.8467C63.8213 10.814 63.5816 9.81926 63.0985 8.98356C62.3365 7.66051 60.9553 6.71403 59.3167 6.56822L27.779 3.75223C26.7459 3.6591 25.7515 3.89922 24.9165 4.38253C23.5935 5.14454 22.6473 6.5262 22.5002 8.16373L21.8707 15.2316L21.8711 15.2301C21.777 16.2637 22.0179 17.2584 22.5007 18.0936C23.2635 19.4169 24.6451 20.3631 26.284 20.5093L57.8208 23.3259C58.8522 23.4194 59.8466 23.1792 60.6828 22.6958C62.0058 21.9338 62.9528 20.5524 63.0983 18.9133L62.1395 18.8283Z" fill="#CEA561"/>
<path d="M58.3674 16.881L57.4087 16.7942C57.3983 16.8955 57.3648 16.9899 57.2824 17.1039C57.1999 17.2168 57.0638 17.3421 56.8716 17.4525C56.4746 17.6854 55.8436 17.8368 55.1504 17.772L29.8947 15.5188C29.4054 15.4747 28.9648 15.3348 28.6254 15.1475C28.2846 14.961 28.0536 14.7283 27.945 14.537C27.8588 14.3844 27.8384 14.2713 27.8474 14.1591L27.8479 14.1557L28.194 10.2835C28.2039 10.1824 28.2368 10.089 28.3187 9.97528C28.4001 9.86371 28.5363 9.73835 28.7284 9.62801C29.125 9.39537 29.7553 9.24369 30.4508 9.30838L55.7028 11.5637C56.1947 11.607 56.6353 11.7469 56.9745 11.9337C57.3155 12.1194 57.5457 12.3519 57.6543 12.5433C57.7398 12.6956 57.7615 12.8099 57.7525 12.9264L57.4086 16.7961L57.4087 16.7942L58.3674 16.881L59.3258 16.9662L59.6704 13.0967C59.72 12.552 59.5779 12.0213 59.3216 11.5806C58.9916 11.0133 58.4914 10.5719 57.9016 10.2462C57.3099 9.92232 56.6202 9.71334 55.8744 9.6457L30.6224 7.39038C29.5655 7.29868 28.5706 7.4997 27.7658 7.96067C27.3783 8.18442 27.0338 8.47312 26.7674 8.83542C26.5008 9.19606 26.3175 9.63715 26.2764 10.1136L25.9302 13.9847L25.9307 13.9813C25.8784 14.5288 26.0219 15.0598 26.2777 15.4996C26.608 16.0674 27.1079 16.5083 27.6972 16.8343C28.2888 17.1589 28.9775 17.3684 29.7227 17.4359L54.9789 19.69C56.0333 19.7818 57.0285 19.5813 57.8342 19.1198C58.2208 18.8966 58.5658 18.6076 58.8329 18.2455C59.0995 17.8849 59.2836 17.444 59.3257 16.9682L59.3258 16.9662L58.3674 16.881Z" fill="#CEA561"/>
<path d="M56.8572 13.2565L28.6406 10.7375L30.3894 9.76048L55.4187 11.9955L56.8572 13.2565Z" fill="#CEA561"/>
<path d="M56.6703 15.3741L28.452 12.8543L30.2008 11.8772L55.2308 14.1125L56.6703 15.3741Z" fill="#CEA561"/>
<path d="M56.4757 17.4918L28.2611 14.9711L30.0113 13.9932L55.0395 16.2295L56.4757 17.4918Z" fill="#CEA561"/>
<path d="M44.9941 50.1208L45.9527 50.2065C46.2189 47.2367 46.165 44.9187 46.0127 42.8917C45.8988 41.371 45.7317 40.0182 45.6053 38.6721C45.4153 36.6522 45.3112 34.6478 45.5856 32.0184C45.8613 29.39 46.5205 26.1325 47.8846 21.6731L48.2317 20.5377L47.0495 20.4323C45.8168 20.3227 44.6108 20.2144 43.7131 20.1342C42.8151 20.0535 42.2267 20.0007 42.2251 20.0011C42.2244 20.0009 39.8622 19.7899 37.3962 19.5706L36.2267 19.467L36.354 20.6337C36.8352 25.0672 36.942 28.3132 36.8217 30.858C36.6375 34.6773 35.9653 36.9139 35.2047 39.4045C34.4434 41.8906 33.5959 44.6141 33.2014 49.0685C32.6729 54.9677 32.997 58.931 33.4134 61.861C33.6206 63.3247 33.8483 64.5256 33.9972 65.5623C34.1471 66.6009 34.2169 67.4654 34.1427 68.2938C34.071 69.0955 33.8312 69.8362 33.4962 70.5888C32.9973 71.7171 32.2713 72.8473 31.7176 74.1629C31.4425 74.8212 31.2144 75.5299 31.1034 76.3039C30.991 77.0768 30.9994 77.9129 31.1805 78.8018C31.3707 79.7396 31.6842 80.5735 32.099 81.2918C32.916 82.7123 34.1395 83.6754 35.5041 84.068C36.8666 84.4643 38.356 84.2823 39.649 83.5333C40.9152 82.8028 41.988 81.5456 42.6697 79.8282C43.1204 78.7006 43.2359 77.6147 43.1523 76.6154C43.0261 75.1129 42.4997 73.8143 42.0882 72.5934C41.6697 71.3679 41.3618 70.241 41.4698 69.0505C41.5426 68.2284 41.7718 67.3862 42.1164 66.3839C42.6318 64.8813 43.4 63.0389 44.1315 60.4789C44.8637 57.9168 45.5572 54.6357 45.9527 50.2065L44.9941 50.1208L44.0355 50.0352C43.5194 55.7919 42.5062 59.4612 41.5763 62.1923C41.1101 63.5595 40.6616 64.695 40.2955 65.7583C39.9315 66.8198 39.647 67.8176 39.5525 68.8791C39.4543 69.9662 39.6135 70.9686 39.8566 71.8863C40.2248 73.2645 40.7635 74.4778 41.042 75.6334C41.1828 76.2109 41.2639 76.77 41.2506 77.3362C41.2369 77.9027 41.1329 78.4801 40.8804 79.1167C40.3307 80.4958 39.5306 81.3773 38.6864 81.8659C37.8191 82.3636 36.8993 82.4646 36.0387 82.2184C35.1802 81.9685 34.3661 81.3639 33.7658 80.3295C33.4638 79.8063 33.22 79.172 33.0671 78.4193C32.8872 77.5205 32.9365 76.76 33.1192 76.0142C33.3922 74.8994 34.0064 73.8196 34.6406 72.6199C35.2676 71.4238 35.9131 70.0902 36.0605 68.4649C36.1546 67.409 36.0603 66.3858 35.9027 65.2883C35.6641 63.6391 35.2797 61.8003 35.0475 59.2788C34.8154 56.7597 34.7333 53.5586 35.1187 49.2398C35.3745 46.38 35.8091 44.3199 36.2929 42.5273C36.6564 41.1826 37.0515 39.9831 37.4237 38.7133C37.9825 36.8097 38.4802 34.7502 38.6863 31.9215C38.8937 29.0908 38.8177 25.4912 38.2676 20.4257L37.3113 20.5294L37.2259 21.4885C38.4585 21.5981 39.6652 21.7054 40.5641 21.7855C41.463 21.8657 42.0518 21.9182 42.0538 21.9183C42.053 21.9181 44.4126 22.13 46.8784 22.35L46.9641 21.3914L46.0435 21.1096C44.8086 25.1481 44.1247 28.268 43.7831 30.8673C43.2688 34.7647 43.5397 37.4884 43.8269 40.2266C44.1133 42.9697 44.4171 45.7439 44.0355 50.0352L44.9941 50.1208Z" fill="#CEA561"/>
<path d="M42.2951 49.7534L41.3364 49.6677C41.1497 51.7661 40.7523 53.67 40.2622 55.0959C40.018 55.8077 39.7495 56.3995 39.4924 56.8235C39.2397 57.2499 38.9845 57.492 38.8814 57.5435L38.838 57.5643L38.8603 57.6541L38.8687 57.5631L38.838 57.5643L38.8603 57.6541L38.8687 57.5631L38.8611 57.6543L38.8987 57.5692L38.8692 57.5629L38.8611 57.6543L38.8987 57.5692L38.8786 57.5568C38.837 57.5285 38.7307 57.422 38.6176 57.224C38.4664 56.9644 38.3046 56.5583 38.1708 56.0475C37.7596 54.5084 37.5941 52.0535 37.838 49.3543C38.025 47.2564 38.4229 45.3522 38.913 43.9264C39.1572 43.2145 39.425 42.6226 39.6824 42.199C39.9351 41.7726 40.19 41.5313 40.2929 41.4793L40.3361 41.4592L40.3139 41.3718L40.3066 41.4603L40.3361 41.4592L40.3139 41.3718L40.3066 41.4603L40.3148 41.367L40.2768 41.4535L40.3066 41.4603L40.3148 41.367L40.2768 41.4535L40.2961 41.4657C40.3377 41.494 40.4441 41.6005 40.5572 41.7997C40.7081 42.0589 40.8704 42.4647 41.0042 42.9755C41.4147 44.5144 41.5799 46.9688 41.3364 49.6677L42.2951 49.7534L43.2534 49.8386C43.4247 47.9201 43.4105 46.1205 43.2406 44.5829C43.1551 43.8135 43.0307 43.1102 42.8652 42.4836C42.6992 41.8573 42.4953 41.3082 42.2246 40.837C42.0403 40.519 41.8246 40.2326 41.5402 39.9958C41.2592 39.7606 40.8883 39.5774 40.4776 39.5426C40.0583 39.5035 39.6521 39.6236 39.3303 39.8119C38.7819 40.1365 38.3937 40.619 38.0349 41.2026C37.5058 42.0814 37.0656 43.2293 36.7037 44.5874C36.344 45.9441 36.0708 47.5069 35.9203 49.1833C35.7498 51.1019 35.7638 52.9023 35.9339 54.4404C36.0192 55.2093 36.1438 55.913 36.3094 56.5396C36.4756 57.1664 36.6792 57.7151 36.9502 58.1867C37.1347 58.504 37.3507 58.7908 37.6356 59.0274C37.9161 59.2629 38.2872 59.4454 38.6974 59.4804C39.1172 59.5192 39.5212 59.3997 39.844 59.2109C40.3923 58.8863 40.7806 58.4038 41.1394 57.8202C41.6697 56.9413 42.1096 55.7929 42.4715 54.4349C42.8312 53.0781 43.1042 51.5149 43.2534 49.8386L42.2951 49.7534Z" fill="#CEA561"/>
<path d="M43.1005 21.0453L41.207 31.4185L41.1825 20.8737L43.1005 21.0453Z" fill="#CEA561"/>
<path d="M85.4133 37.8203L85.4134 37.82C85.5534 37.4191 85.4596 37.0276 85.299 36.7176C85.1394 36.4096 84.8886 36.1267 84.6011 35.8768C84.0231 35.3745 83.1903 34.9134 82.2424 34.5818L82.2421 34.5817C81.2938 34.2504 80.355 34.0926 79.5899 34.126C79.2093 34.1426 78.837 34.2079 78.5203 34.3497C78.2017 34.4924 77.8847 34.7404 77.7447 35.1412C77.5562 35.6809 77.789 36.1922 78.0562 36.5496C78.2487 36.8069 78.5061 37.0524 78.8044 37.2791L78.559 37.9819C77.3969 38.1092 76.3126 38.6733 75.9286 39.7725C75.5461 40.8675 76.0445 41.9835 76.8738 42.8064L76.6535 43.4368C76.2788 43.4286 75.9245 43.4604 75.6136 43.5419C75.1821 43.6551 74.6813 43.9101 74.4927 44.45C74.3042 44.9897 74.537 45.501 74.8043 45.8584C74.9967 46.1157 75.2541 46.3612 75.5524 46.5879L74.0129 50.9949C72.9918 51.4603 72.1407 52.3868 71.7235 53.5807L71.7113 53.6155L71.7074 53.6327L71.7007 53.647L71.689 53.6802C71.2722 54.873 71.3605 56.1278 71.8716 57.1251L70.3303 61.5358C69.9558 61.5276 69.6017 61.5594 69.2908 61.6409C68.8594 61.7541 68.3586 62.0091 68.17 62.549C67.9813 63.0888 68.2142 63.6002 68.4814 63.9574C68.6739 64.2148 68.9314 64.4602 69.2297 64.6869L69.0098 65.3165C67.847 65.4416 66.7627 66.0103 66.3808 67.1034C65.9987 68.1973 66.4941 69.3172 67.3241 70.142L67.0785 70.8447C66.7039 70.8364 66.3496 70.8682 66.0387 70.9497C65.6071 71.0629 65.1063 71.3179 64.9178 71.8579C64.7777 72.2588 64.8733 72.65 65.0338 72.9583C65.1937 73.2652 65.4444 73.5473 65.7319 73.7967C66.3098 74.2981 67.1424 74.7592 68.0908 75.0905C69.039 75.4217 69.9776 75.5796 70.742 75.5472C71.1222 75.5311 71.4941 75.4665 71.8104 75.3258C72.1281 75.1844 72.4464 74.9375 72.5864 74.5365C72.7749 73.9967 72.5419 73.4853 72.2746 73.1281C72.0821 72.8708 71.8247 72.6254 71.5264 72.3987L71.7717 71.6962C72.9351 71.5674 74.0199 70.999 74.402 69.9053C74.784 68.8123 74.29 67.692 73.4578 66.8704L73.6777 66.241C74.0523 66.2492 74.4065 66.2174 74.7174 66.1359C75.1489 66.0227 75.6496 65.7677 75.8382 65.2278C76.0268 64.688 75.7938 64.1766 75.5265 63.8193C75.334 63.562 75.0766 63.3166 74.7783 63.0899L76.3195 58.6786C77.3401 58.2169 78.1905 57.2895 78.6072 56.0971L78.6189 56.0636L78.6228 56.0468L78.6303 56.0312L78.642 55.9975C79.0593 54.8034 78.9697 53.5489 78.4608 52.5491L80.0004 48.142C80.375 48.1502 80.7293 48.1184 81.0402 48.0369C81.4714 47.9238 81.9723 47.6689 82.1607 47.1291C82.3496 46.5891 82.1165 46.0776 81.8493 45.7204C81.6568 45.4631 81.3995 45.2177 81.1013 44.991L81.3217 44.36C82.4829 44.2328 83.5676 43.6693 83.9496 42.5748M85.4133 37.8203L83.3361 42.36M85.4133 37.8203C85.2245 38.3599 84.7238 38.6149 84.2922 38.7281C83.9814 38.8096 83.6271 38.8414 83.2525 38.8331M85.4133 37.8203L83.2525 38.8331M83.9496 42.5748C83.9497 42.5745 83.9498 42.5742 83.9499 42.5739L83.3361 42.36M83.9496 42.5748C83.9495 42.5748 83.9495 42.5749 83.9495 42.5749L83.3361 42.36M83.9496 42.5748C84.3345 41.4758 83.837 40.359 83.0071 39.5355M83.3361 42.36C83.6411 41.4894 83.1807 40.4869 82.2511 39.7287M83.0071 39.5355L82.8647 39.9432L82.2511 39.7287M83.0071 39.5355L83.2525 38.8331M83.0071 39.5355C82.8974 39.4267 82.7819 39.3229 82.6619 39.225L82.2511 39.7287M82.2511 39.7287L83.2525 38.8331M75.062 29.2707L75.7448 28.5161L77.5995 26.4667L77.6013 26.4646C77.815 26.2264 78.0495 26.1969 78.1926 26.2469L90.6011 30.5813C90.7437 30.6311 90.9111 30.8009 90.9339 31.126C90.934 31.1266 90.934 31.1272 90.9341 31.1278L91.1029 33.8806L91.1653 34.8989L92.0618 34.4121L93.3972 33.6869L95.5576 34.4415C95.7016 34.4918 95.9261 34.7639 95.767 35.2186L95.7669 35.2188L79.068 83.0194C78.9102 83.4712 78.5623 83.5469 78.4205 83.4973L78.4203 83.4972L76.2599 82.7426L75.6666 81.3439L75.2682 80.4049L74.5854 81.1626L72.7396 83.2106C72.7391 83.2112 72.7386 83.2117 72.7381 83.2123C72.5174 83.4521 72.2811 83.4808 72.138 83.4309L75.062 29.2707ZM75.062 29.2707L74.6645 28.3339L74.0711 26.9352L71.9107 26.1805C71.7667 26.1302 71.4221 26.2029 71.2629 26.6583C71.2629 26.6583 71.2629 26.6584 71.2629 26.6584L54.564 74.459L54.564 74.459C54.4063 74.9104 54.631 75.1865 54.7735 75.2362L56.9336 75.9909L58.2689 75.2657L59.1634 74.7799L59.2278 75.7958L59.4025 78.5549L59.4026 78.5549L59.4027 78.5577C59.4216 78.8773 59.5867 79.0464 59.73 79.0964L59.7302 79.0965L72.1378 83.4308L75.062 29.2707Z" fill="#1B1B1B" stroke="#CEA561" stroke-width="1.3"/>
</g>
<defs>
<clipPath id="clip0_0_302">
<rect width="110" height="90" fill="white"/>
</clipPath>
</defs>
</svg>
