<svg width="22" height="22" viewBox="0 0 22 22" fill="none" xmlns="http://www.w3.org/2000/svg">
<path d="M14.5537 16.3311C15.0252 16.3311 15.4774 16.5184 15.8108 16.8518C16.1442 17.1852 16.3315 17.6374 16.3315 18.1089C16.3315 18.5804 16.1442 19.0325 15.8108 19.3659C15.4774 19.6993 15.0252 19.8866 14.5537 19.8866C14.0822 19.8866 13.63 19.6993 13.2966 19.3659C12.9632 19.0325 12.7759 18.5804 12.7759 18.1089C12.7759 17.6374 12.9632 17.1852 13.2966 16.8518C13.63 16.5184 14.0822 16.3311 14.5537 16.3311ZM14.5537 17.22C14.3179 17.22 14.0918 17.3136 13.9251 17.4803C13.7584 17.647 13.6648 17.8731 13.6648 18.1089C13.6648 18.3446 13.7584 18.5707 13.9251 18.7374C14.0918 18.9041 14.3179 18.9978 14.5537 18.9978C14.7894 18.9978 15.0155 18.9041 15.1822 18.7374C15.3489 18.5707 15.4426 18.3446 15.4426 18.1089C15.4426 17.8731 15.3489 17.647 15.1822 17.4803C15.0155 17.3136 14.7894 17.22 14.5537 17.22ZM6.55367 16.3311C7.02517 16.3311 7.47736 16.5184 7.81075 16.8518C8.14415 17.1852 8.33145 17.6374 8.33145 18.1089C8.33145 18.5804 8.14415 19.0325 7.81075 19.3659C7.47736 19.6993 7.02517 19.8866 6.55367 19.8866C6.08218 19.8866 5.62999 19.6993 5.29659 19.3659C4.9632 19.0325 4.7759 18.5804 4.7759 18.1089C4.7759 17.6374 4.9632 17.1852 5.29659 16.8518C5.62999 16.5184 6.08218 16.3311 6.55367 16.3311ZM6.55367 17.22C6.31793 17.22 6.09183 17.3136 5.92513 17.4803C5.75844 17.647 5.66478 17.8731 5.66478 18.1089C5.66478 18.3446 5.75844 18.5707 5.92513 18.7374C6.09183 18.9041 6.31793 18.9978 6.55367 18.9978C6.78942 18.9978 7.01552 18.9041 7.18221 18.7374C7.34891 18.5707 7.44256 18.3446 7.44256 18.1089C7.44256 17.8731 7.34891 17.647 7.18221 17.4803C7.01552 17.3136 6.78942 17.22 6.55367 17.22ZM16.3315 5.66441H4.12701L6.39367 10.9977H13.6648C13.9581 10.9977 14.2159 10.8555 14.3759 10.6422L17.0426 7.08663C17.1581 6.93552 17.2204 6.74886 17.2204 6.5533C17.2204 6.31755 17.1267 6.09146 16.96 5.92476C16.7933 5.75806 16.5672 5.66441 16.3315 5.66441ZM13.6648 11.8866H6.43812L5.75367 13.2733L5.66478 13.6644C5.66478 13.9002 5.75844 14.1263 5.92513 14.293C6.09183 14.4597 6.31793 14.5533 6.55367 14.5533H16.3315V15.4422H6.55367C6.08218 15.4422 5.62999 15.2549 5.29659 14.9215C4.9632 14.5881 4.7759 14.1359 4.7759 13.6644C4.77563 13.3628 4.8521 13.0661 4.99812 12.8022L5.63812 11.4955L2.41145 3.88663H1.22034V2.99774H2.99812L3.75367 4.77552H16.3315C16.803 4.77552 17.2551 4.96282 17.5885 5.29622C17.9219 5.62962 18.1092 6.0818 18.1092 6.5533C18.1092 6.99775 17.9581 7.37108 17.7092 7.6733L15.1226 11.1311C14.8026 11.5844 14.2692 11.8866 13.6648 11.8866Z" fill="#151515"/>
</svg>
