<svg width="40" height="40" viewBox="0 0 40 40" fill="none" xmlns="http://www.w3.org/2000/svg">
<rect x="0.5" y="0.5" width="39" height="39" rx="6.16667" stroke="white"/>
<path d="M33.1141 11.8654C32.132 12.3013 31.0899 12.587 30.0228 12.7129C31.1432 12.0379 31.9829 10.9817 32.3878 9.73788C31.331 10.3635 30.1753 10.8044 28.9703 11.0416C28.1593 10.1779 27.086 9.60577 25.9169 9.41388C24.7477 9.22198 23.5479 9.42104 22.5033 9.9802C21.4587 10.5394 20.6277 11.4274 20.139 12.5068C19.6504 13.5861 19.5313 14.7965 19.8003 15.9504C17.6604 15.8427 15.567 15.2863 13.656 14.3172C11.745 13.3482 10.0592 11.9881 8.70781 10.3254C8.22929 11.1469 7.97778 12.0809 7.97906 13.0316C7.97802 13.9176 8.19602 14.7901 8.61365 15.5715C9.03128 16.3529 9.63559 17.019 10.3728 17.5104C9.51829 17.4839 8.68252 17.2533 7.93531 16.8379V16.9041C7.93475 18.1471 8.36449 19.3519 9.15153 20.314C9.93857 21.276 11.0344 21.9359 12.2528 22.1816C11.8028 22.3066 11.3278 22.3654 10.8353 22.3654C10.4878 22.3654 10.1516 22.3366 9.82281 22.2704C10.1668 23.3396 10.8363 24.2746 11.7377 24.9447C12.6391 25.6149 13.7273 25.9866 14.8503 26.0079C12.5918 27.7711 9.72814 28.5708 6.88281 28.2329C9.34228 29.8177 12.207 30.6589 15.1328 30.6554C25.0328 30.6554 30.4428 22.4529 30.4428 15.3429C30.4428 15.1091 30.4403 14.8779 30.4303 14.6466C31.4845 13.8889 32.3932 12.9472 33.1128 11.8666" fill="white" fill-opacity="0.8"/>
</svg>
